<svg xmlns="http://www.w3.org/2000/svg" width="16" height="16" viewBox="0 0 16 16">
    <path d="M8.71,8.71A1,1,0,1,1,9,8,1,1,0,0,1,8.71,8.71Zm4.95-6.36a8,8,0,1,1-11.31,0A8,8,0,0,1,13.66,2.34ZM12.75,8A4.76,4.76,0,0,1,8,12.75a.25.25,0,1,0,0,.5A5.26,5.26,0,0,0,13.25,8a.25.25,0,1,0-.5,0ZM1.25,8A6.75,6.75,0,0,1,8,1.25a.25.25,0,1,0,0-.5A7.25,7.25,0,0,0,.75,8a.25.25,0,1,0,.5,0ZM8,2.25a.25.25,0,1,0,0-.5A6.26,6.26,0,0,0,1.75,8a.25.25,0,1,0,.5,0A5.76,5.76,0,0,1,8,2.25ZM3.25,8A4.76,4.76,0,0,1,8,3.25a.25.25,0,1,0,0-.5A5.26,5.26,0,0,0,2.75,8a.25.25,0,1,0,.5,0Zm2.28,2.47a3.5,3.5,0,1,0,0-4.95A3.49,3.49,0,0,0,5.53,10.47ZM14.75,8A6.75,6.75,0,0,1,8,14.75a.25.25,0,0,0,0,.5A7.25,7.25,0,0,0,15.25,8a.25.25,0,1,0-.5,0Zm-1,0A5.76,5.76,0,0,1,8,13.75a.25.25,0,1,0,0,.5A6.26,6.26,0,0,0,14.25,8a.25.25,0,1,0-.5,0Z"/>
</svg>
