<svg xmlns="http://www.w3.org/2000/svg" width="16" height="16" viewBox="0 0 16 16">
    <path d="M3,7v3.41a1,1,0,0,1-1,.95,1,1,0,0,1-1-.95V7A1,1,0,0,1,3,7Zm1,5a1,1,0,0,0,1,1v2a1,1,0,1,0,2,0V13H9v2a1,1,0,1,0,2,0V13a1,1,0,0,0,1-1V6H4Zm8-7H4A3.81,3.81,0,0,1,6,1.44L5.41.2a.14.14,0,0,1,0-.18.12.12,0,0,1,.17.05l.63,1.25a4.11,4.11,0,0,1,3.48,0L10.38.07A.12.12,0,0,1,10.55,0a.14.14,0,0,1,0,.18L10,1.44A3.81,3.81,0,0,1,12,5ZM6.5,3a.5.5,0,1,0-.15.35A.5.5,0,0,0,6.5,3Zm4,0a.5.5,0,1,0-.15.35A.5.5,0,0,0,10.5,3ZM14,6a1,1,0,0,0-1,1v3.4a1,1,0,0,0,2,0V7A1,1,0,0,0,14,6Z"/>
</svg>
