<svg xmlns="http://www.w3.org/2000/svg" width="16" height="16" viewBox="0 0 16 16">
    <path d="M14.7,11.68a9.28,9.28,0,0,1-1.18,2.4Q12.27,16,11,16a4.44,4.44,0,0,1-1.35-.31,4.25,4.25,0,0,0-1.45-.31,3.7,3.7,0,0,0-1.37.32A3.48,3.48,0,0,1,5.61,16q-1.46,0-2.89-2.49A9.86,9.86,0,0,1,1.3,8.67a5.7,5.7,0,0,1,1.09-3.6A3.34,3.34,0,0,1,5.12,3.69,6.4,6.4,0,0,1,6.82,4a6.19,6.19,0,0,0,1.33.29,4.81,4.81,0,0,0,1.38-.33,5.43,5.43,0,0,1,1.66-.33,3.52,3.52,0,0,1,2,.63,5,5,0,0,1,1,1,6.23,6.23,0,0,0-1.1,1.13,3.42,3.42,0,0,0-.62,2,3.66,3.66,0,0,0,.66,2.14A2.92,2.92,0,0,0,14.7,11.68ZM11.08.4a3.67,3.67,0,0,1-.28,1.31A4,4,0,0,1,9.91,3a2.72,2.72,0,0,1-1,.69,5.37,5.37,0,0,1-1,.16,4.38,4.38,0,0,1,.75-2.47A3.83,3.83,0,0,1,11,0l0,.11,0,.11s0,.06,0,.1S11.08.38,11.08.4Z"/>
</svg>
