<svg xmlns="http://www.w3.org/2000/svg" width="16" height="16" viewBox="0 0 16 16">
    <path d="M14.93,4a3.26,3.26,0,0,0-3-1.29,8.05,8.05,0,0,0-.91.06C10.29,1.08,9.21,0,8,0S5.71,1.08,5,2.77a8.06,8.06,0,0,0-.91-.06H3.94A1,1,0,0,0,2,3a.94.94,0,0,0,0,.15,2.26,2.26,0,0,0-1,.85C.47,5,.86,6.52,2,8,.86,9.48.47,11,1.07,12a3.26,3.26,0,0,0,3,1.29A8.07,8.07,0,0,0,5,13.23C5.71,14.92,6.79,16,8,16s2.29-1.08,3-2.77a8.07,8.07,0,0,0,.91.06h.13A1,1,0,0,0,14,13a.94.94,0,0,0,0-.15,2.26,2.26,0,0,0,1-.85c.6-1,.21-2.52-.89-4C15.14,6.52,15.53,5,14.93,4Zm-3-.54c.68,0,1.89.12,2.35.92s.16,1.69-.59,2.83l-.14.18a12.75,12.75,0,0,0-1.71-1.6,12.73,12.73,0,0,0-.54-2.29Zm0,3.39A10.89,10.89,0,0,1,13.07,8,10.89,10.89,0,0,1,12,9.15c0-.38,0-.76,0-1.15S12,7.23,12,6.85Zm-1-1.7c-.31-.21-.63-.42-1-.62S9.32,4.17,9,4a11.16,11.16,0,0,1,1.56-.41A11,11,0,0,1,11,5.15ZM8,.75c.79,0,1.63.79,2.25,2.14A12.69,12.69,0,0,0,8,3.57a12.7,12.7,0,0,0-2.25-.68C6.37,1.54,7.21.75,8,.75ZM5.46,3.59A11.15,11.15,0,0,1,7,4c-.34.16-.68.34-1,.53s-.66.4-1,.62A11,11,0,0,1,5.46,3.59ZM4.07,12.54c-.68,0-1.89-.12-2.35-.92s-.16-1.69.59-2.83l.14-.18a12.75,12.75,0,0,0,1.71,1.6,12.73,12.73,0,0,0,.54,2.29ZM4,9.15A10.89,10.89,0,0,1,2.93,8,10.89,10.89,0,0,1,4,6.85C4,7.23,4,7.61,4,8S4,8.77,4,9.15Zm.11-3.37a12.75,12.75,0,0,0-1.71,1.6l-.14-.18c-.76-1.14-1-2.18-.59-2.83a1.53,1.53,0,0,1,.68-.59A1,1,0,0,0,3,4a1,1,0,0,0,.71-.29,1,1,0,0,0,.16-.24h.2l.63,0A12.73,12.73,0,0,0,4.16,5.78ZM5,10.85c.31.21.63.42,1,.62s.68.37,1,.53a11.16,11.16,0,0,1-1.56.41A11,11,0,0,1,5,10.85Zm3,4.4c-.79,0-1.63-.79-2.25-2.14A12.7,12.7,0,0,0,8,12.43a12.7,12.7,0,0,0,2.25.68C9.63,14.46,8.79,15.25,8,15.25Zm2.54-2.84A11.16,11.16,0,0,1,9,12c.34-.16.68-.34,1-.53s.66-.4,1-.62A11,11,0,0,1,10.54,12.41Zm.6-2.61a14.92,14.92,0,0,1-1.52,1A15,15,0,0,1,8,11.62a15,15,0,0,1-1.62-.81,14.92,14.92,0,0,1-1.52-1,14.78,14.78,0,0,1,0-3.6A14.14,14.14,0,0,1,8,4.38a15,15,0,0,1,1.63.81,14.92,14.92,0,0,1,1.52,1A15,15,0,0,1,11.25,8,15,15,0,0,1,11.14,9.8Zm3.14,1.83a1.53,1.53,0,0,1-.68.59A1,1,0,0,0,13,12a.93.93,0,0,0-.87.54h-.2l-.63,0a12.73,12.73,0,0,0,.54-2.29,12.75,12.75,0,0,0,1.71-1.6l.14.18C14.44,9.94,14.66,11,14.28,11.63ZM8.71,7.29A1,1,0,1,1,8,7,1,1,0,0,1,8.71,7.29Z"/>
</svg>
