<svg xmlns="http://www.w3.org/2000/svg" width="16" height="16" viewBox="0 0 16 16">
    <path d="M5,7.5A.5.5,0,0,1,5.5,7h1a.5.5,0,0,1,0,1h-1A.5.5,0,0,1,5,7.5ZM5.5,4h1a.5.5,0,0,0,0-1h-1a.5.5,0,0,0,0,1Zm0,2h3a.5.5,0,0,0,0-1h-3a.5.5,0,0,0,0,1Zm0,6h1a.5.5,0,0,0,0-1h-1a.5.5,0,0,0,0,1ZM3,14V5.92C3,4.11,2.56,2.43,1,1.5,1.45,0,2.82,0,4.37,0h9a1,1,0,0,1,.94,1.33,6,6,0,0,0-.33,2V14a2,2,0,0,1-2,2H5A2,2,0,0,1,3,14ZM4,5.92V14a.91.91,0,0,0,1,1h7a.91.91,0,0,0,1-1V3.3A7,7,0,0,1,13.39,1h-9a4.38,4.38,0,0,0-2,.25A6.11,6.11,0,0,1,4,5.92ZM5.5,14h3a.5.5,0,0,0,0-1h-3a.5.5,0,0,0,0,1Zm0-4h3a.5.5,0,0,0,0-1h-3a.5.5,0,0,0,0,1Z"/>
</svg>
