<svg xmlns="http://www.w3.org/2000/svg" width="16" height="16" viewBox="0 0 16 16">
    <path d="M11.47,2.76A3.49,3.49,0,0,0,6.44.4a2,2,0,0,0-3,.85A2,2,0,0,0,2,4.56V15a1,1,0,0,0,1,1h7a1,1,0,0,0,1-1V13h1.5A1.46,1.46,0,0,0,14,11.5v-4A1.46,1.46,0,0,0,12.5,6h-.69a2,2,0,0,0,.69-1.5A2,2,0,0,0,11.47,2.76ZM5,13.75a.25.25,0,0,1-.25.25h-.5A.25.25,0,0,1,4,13.75V6.25A.25.25,0,0,1,4.25,6h.5A.25.25,0,0,1,5,6.25Zm2,0a.25.25,0,0,1-.25.25h-.5A.25.25,0,0,1,6,13.75V6.32a3.48,3.48,0,0,0,1,.52Zm2,0a.25.25,0,0,1-.25.25h-.5A.25.25,0,0,1,8,13.75V7h.06A3.41,3.41,0,0,0,9,6.87Zm1.1-8.34a.5.5,0,0,0-.51.06A2.47,2.47,0,0,1,8.07,6a2.5,2.5,0,0,1-2.5-2.52.6.6,0,0,0-.5-.5H5a.5.5,0,0,0-.49.43,1,1,0,0,1-1,.85,1,1,0,0,1-1-1,1,1,0,0,1,1.18-1,.5.5,0,0,0,.58-.42A1,1,0,0,1,6,1.35a.5.5,0,0,0,.66.08,2.49,2.49,0,0,1,3.87,1.73.5.5,0,0,0,.32.4,1,1,0,0,1,.65.93A1,1,0,0,1,10.1,5.41ZM12.49,7a.46.46,0,0,1,.51.5v4a.46.46,0,0,1-.5.51H11V7Z"/>
</svg>
