<svg xmlns="http://www.w3.org/2000/svg" width="16" height="16" viewBox="0 0 16 16">
    <path d="M6.4,9.54q0,1.08-1.33,1.08H3.14V8.36h2Q6.4,8.36,6.4,9.54ZM6.07,6.16q0-.94-1.24-.94H3.14V7.14H5Q6.07,7.14,6.07,6.16ZM16,3V13a3,3,0,0,1-3,3H3a2.89,2.89,0,0,1-2.12-.88A2.89,2.89,0,0,1,0,13V3A2.89,2.89,0,0,1,.88.88,2.89,2.89,0,0,1,3,0H13a2.89,2.89,0,0,1,2.12.88A2.89,2.89,0,0,1,16,3ZM10,5.18h3.32v-.8H10ZM8.2,9.65A2,2,0,0,0,6.71,7.56,1.79,1.79,0,0,0,7.82,5.85a2.26,2.26,0,0,0-.2-1A1.44,1.44,0,0,0,7,4.22a2.77,2.77,0,0,0-.82-.31,5.14,5.14,0,0,0-1-.09H1.33V12h4a3.42,3.42,0,0,0,2.05-.6A2,2,0,0,0,8.2,9.65Zm6.47-.51a3.44,3.44,0,0,0-.78-2.3,2.62,2.62,0,0,0-2.12-.92,2.89,2.89,0,0,0-2.19.9,3.13,3.13,0,0,0-.85,2.25,3.12,3.12,0,0,0,.82,2.26,2.94,2.94,0,0,0,2.22.85,2.66,2.66,0,0,0,2.78-2H13.11a1,1,0,0,1-.49.56,1.62,1.62,0,0,1-.79.21,1.42,1.42,0,0,1-1.08-.4,1.56,1.56,0,0,1-.37-1.11h4.28Q14.67,9.34,14.67,9.14Zm-2.94-2a1.33,1.33,0,0,0-.95.34,1.35,1.35,0,0,0-.41.93H13Q12.91,7.15,11.73,7.15Z"/>
</svg>
