<svg xmlns="http://www.w3.org/2000/svg" width="16" height="16" viewBox="0 0 16 16">
    <path d="M7.82,5.85a2.26,2.26,0,0,0-.2-1A1.44,1.44,0,0,0,7,4.22a2.77,2.77,0,0,0-.82-.31,5.14,5.14,0,0,0-1-.09H1.33V12h4a3.42,3.42,0,0,0,2.05-.6A2,2,0,0,0,8.2,9.65,2,2,0,0,0,6.71,7.56,1.79,1.79,0,0,0,7.82,5.85ZM3.14,5.22h1.7q1.24,0,1.24.94T5,7.14H3.14Zm1.93,5.41H3.14V8.36h2q1.29,0,1.29,1.18T5.06,10.63Zm5-6.25h3.32v.8H10Zm4.63,4.76a3.44,3.44,0,0,0-.78-2.3,2.62,2.62,0,0,0-2.12-.92,2.89,2.89,0,0,0-2.19.9,3.13,3.13,0,0,0-.85,2.25,3.12,3.12,0,0,0,.82,2.26,2.94,2.94,0,0,0,2.22.85,2.66,2.66,0,0,0,2.78-2H13.11a1,1,0,0,1-.49.56,1.62,1.62,0,0,1-.79.21,1.42,1.42,0,0,1-1.08-.4,1.56,1.56,0,0,1-.37-1.11h4.28Q14.67,9.34,14.67,9.14Zm-4.29-.72a1.35,1.35,0,0,1,.41-.93,1.33,1.33,0,0,1,.95-.34q1.18,0,1.29,1.27Z"/>
</svg>
