<svg xmlns="http://www.w3.org/2000/svg" width="16" height="16" viewBox="0 0 16 16">
    <path d="M5.89,5.17a3.51,3.51,0,0,1,2-.68H8a3.51,3.51,0,0,1,2.08.68l-.14.19-.16.18-.18.16-.14.11a2.65,2.65,0,0,0-2.91,0L6.38,5.7,6.2,5.54,6,5.36ZM9.31,11l.1.22a3.51,3.51,0,0,0,2.08-3.6l-.24,0L11,7.72l-.23.07-.16.07a2.65,2.65,0,0,1-1.45,2.52c0,.06,0,.12,0,.18s0,.16.05.24S9.28,10.95,9.31,11Zm2.1-5A3.71,3.71,0,0,0,8.2.93a2.83,2.83,0,0,1-.08,5.64v.58a.85.85,0,0,1,.67,1.14l.53.31a2.83,2.83,0,0,1,4.89,2.81A3.71,3.71,0,0,0,11.41,6ZM16,8A8,8,0,1,1,8,0,8,8,0,0,1,16,8Zm-.91,0A7.09,7.09,0,1,0,8,15.09,7.1,7.1,0,0,0,15.09,8ZM7.87.92h0Zm-5,6.74a2.83,2.83,0,0,1,3.78.91l.51-.29A.86.86,0,0,1,7.8,7.16V6.57A2.83,2.83,0,0,1,7.73.93,3.71,3.71,0,0,0,4.52,6a3.71,3.71,0,0,0-2.78,5.33A2.83,2.83,0,0,1,2.89,7.66ZM5.71,9.3a2.64,2.64,0,0,1-.35-1.48l-.16-.07L5,7.68l-.24-.05-.24,0a3.5,3.5,0,0,0,2.08,3.6c0-.07.07-.15.1-.22s.05-.15.07-.23,0-.16.05-.24,0-.12,0-.18A2.64,2.64,0,0,1,5.71,9.3Zm4.55,3.3a2.83,2.83,0,0,1-1.1-3.73l-.53-.31a.85.85,0,0,1-1.28,0l-.51.3A2.83,2.83,0,0,1,2,11.69,3.71,3.71,0,0,0,8,12a3.71,3.71,0,0,0,6-.25A2.83,2.83,0,0,1,10.26,12.6ZM7.79.92h0Z"/>
</svg>
