<svg xmlns="http://www.w3.org/2000/svg" width="16" height="16" viewBox="0 0 16 16">
    <path d="M13.77,9.35c.33-1.9,1.16-6.72,1.16-7.06C14.93,1,11.82,0,8,0S1.07,1,1.07,2.3c0,.34.83,5.15,1.16,7.06.14.86,2.36,2.11,5.77,2.11S13.62,10.21,13.77,9.35ZM8,9.92a2.2,2.2,0,1,1,2.2-2.21A2.22,2.22,0,0,1,8,9.92ZM8,3c-2.46,0-4.44-.42-4.44-1s2-.94,4.44-.94,4.44.43,4.44,1S10.45,3,8,3Zm5,8.26a.24.24,0,0,1,.24.27v.06l-.5,2.57C12.5,15.2,10.46,16,8,16s-4.5-.8-4.73-1.83l-.5-2.57v-.06A.24.24,0,0,1,3,11.26a.28.28,0,0,1,.18.07A8.16,8.16,0,0,0,8,12.69a8.16,8.16,0,0,0,4.8-1.35A.28.28,0,0,1,13,11.26ZM9.1,7.71a1.1,1.1,0,0,1-2.21,0,1.1,1.1,0,1,1,2.21,0Z"/>
</svg>
