<svg xmlns="http://www.w3.org/2000/svg" width="16" height="16" viewBox="0 0 16 16">
    <path d="M9.34,2.16,10.11.29A7.94,7.94,0,0,1,12,1.05l-.77,1.87A6,6,0,0,0,9.34,2.16Zm3.74,9,1.87.77a7.94,7.94,0,0,0,.76-1.85l-1.86-.77A6,6,0,0,1,13.08,11.19ZM9.34,13.84l.77,1.86A7.94,7.94,0,0,0,12,14.95l-.77-1.87A6,6,0,0,1,9.34,13.84Zm4.51-7.18,1.86-.77A7.94,7.94,0,0,0,14.95,4l-1.87.77A6,6,0,0,1,13.84,6.66ZM6.66,2.16,5.89.29A7.94,7.94,0,0,0,4,1.05l.77,1.87A6,6,0,0,1,6.66,2.16ZM4.81,13.08,4,14.95a7.94,7.94,0,0,0,1.85.76l.77-1.86A6,6,0,0,1,4.81,13.08ZM2.16,9.34l-1.86.77A7.94,7.94,0,0,0,1.05,12l1.87-.77A6,6,0,0,1,2.16,9.34Zm.77-4.52L1.05,4A7.94,7.94,0,0,0,.29,5.89l1.86.77A6,6,0,0,1,2.92,4.81ZM8,4a4,4,0,1,0,4,4A4,4,0,0,0,8,4ZM5.5,8A2.5,2.5,0,0,1,8,5.5v5A2.5,2.5,0,0,1,5.5,8Z"/>
</svg>
