<svg xmlns="http://www.w3.org/2000/svg" width="16" height="16" viewBox="0 0 16 16">
    <path d="M8,6.5A1.5,1.5,0,1,1,6.5,8,1.5,1.5,0,0,1,8,6.5Zm5.2,7.2a.75.75,0,0,1-.53-1.28,6.25,6.25,0,0,0,0-8.84.75.75,0,1,1,1.06-1.06,7.75,7.75,0,0,1,0,11A.75.75,0,0,1,13.2,13.7Zm-9.87-.22a.75.75,0,0,0,0-1.06,6.25,6.25,0,0,1,0-8.84A.75.75,0,0,0,2.27,2.52a7.75,7.75,0,0,0,0,11,.75.75,0,0,0,1.06,0Zm7.95-2.12a4.76,4.76,0,0,0,0-6.72A.75.75,0,0,0,10.22,5.7a3.26,3.26,0,0,1,0,4.6.75.75,0,1,0,1.06,1.06Zm-5.5,0a.75.75,0,0,0,0-1.06,3.26,3.26,0,0,1,0-4.6A.75.75,0,0,0,4.72,4.64a4.76,4.76,0,0,0,0,6.72.75.75,0,0,0,1.06,0Z"/>
</svg>
