<svg xmlns="http://www.w3.org/2000/svg" width="16" height="16" viewBox="0 0 16 16">
    <path d="M4.48,6.06l.89-.45L6.82,8.5h.83L7.22,4.33l1-.11L8.66,8.5H9l2-2.91.82.57L10.17,8.5H11V10H5V8.5h.7ZM7.11,3.33l1-.11s.84-1.76,1-2.38S8.43,0,7.49,0L7.24,0A3.2,3.2,0,0,0,6.49.2c-.66.25-1.13.68-.91,1C5.92,1.79,7.11,3.33,7.11,3.33Zm8.4.54a3,3,0,0,0-3.64-2.55l-.31,3.44.82.57ZM4.75,2.5A4.84,4.84,0,0,0,2,.5c.5,1.5,0,2.25.5,3.25A3.93,3.93,0,0,0,3.88,5.24l1.2-.6A4.56,4.56,0,0,0,4.75,2.5ZM11,14V11H5v3ZM6,16h4a1,1,0,0,0,1-1H5A1,1,0,0,0,6,16Z"/>
</svg>
