<svg xmlns="http://www.w3.org/2000/svg" width="16" height="16" viewBox="0 0 16 16">
    <path d="M8,0a8,8,0,1,0,8,8A8,8,0,0,0,8,0ZM8,15.09A7.09,7.09,0,1,1,15.09,8,7.1,7.1,0,0,1,8,15.09Zm-2.35-5a1.83,1.83,0,0,1-3.31,1.45h0v0A1.83,1.83,0,0,1,5.2,9.28l1-.57a3.16,3.16,0,0,0,.19.42,3,3,0,0,0,.27.37ZM13,9a1.83,1.83,0,0,1,.67,2.5v0h0a1.83,1.83,0,0,1-3.31-1.45l-1-.57a3,3,0,0,0,.27-.37,3.16,3.16,0,0,0,.19-.42l1,.57A1.83,1.83,0,0,1,13,9ZM6.18,3.43A1.83,1.83,0,0,1,7.95,1.6H8a1.83,1.83,0,0,1,.46,3.6V6.34a3.16,3.16,0,0,0-.46,0,3,3,0,0,0-.46,0V5.2A1.83,1.83,0,0,1,6.18,3.43ZM9.4,8.18A1.39,1.39,0,1,1,8,6.78,1.39,1.39,0,0,1,9.4,8.18ZM5.57,8.5A2.46,2.46,0,0,1,7.07,5.91v.63a1.89,1.89,0,0,0-1,1.64h0ZM9,9.82l.54.31a2.45,2.45,0,0,1-3,0l.54-.31A1.89,1.89,0,0,0,9,9.82ZM9.9,8.19v0a1.87,1.87,0,0,0-.95-1.63V5.91A2.46,2.46,0,0,1,10.44,8.5Z"/>
</svg>
