<svg xmlns="http://www.w3.org/2000/svg" width="16" height="16" viewBox="0 0 16 16">
    <path d="M8,0a7.78,7.78,0,0,1,4,1.07,7.83,7.83,0,0,1,3.14,3.32L8.52,4a4.38,4.38,0,0,0-2.62.67,3.85,3.85,0,0,0-1.65,2L1.78,3A7.8,7.8,0,0,1,4.56.78,8,8,0,0,1,8,0ZM1.31,3.62l3,5.92A4.36,4.36,0,0,0,6.2,11.47a3.88,3.88,0,0,0,2.62.4l-2.05,4A8,8,0,0,1,.89,11.67,7.85,7.85,0,0,1,0,8,7.86,7.86,0,0,1,1.31,3.62ZM15.46,5.12A7.83,7.83,0,0,1,16,7.9a8.11,8.11,0,0,1-.43,2.73,7.89,7.89,0,0,1-1.37,2.43A8,8,0,0,1,12,14.93,7.88,7.88,0,0,1,7.56,16l3.62-5.56a4.27,4.27,0,0,0,.74-2.59,3.91,3.91,0,0,0-1-2.48ZM8,5.3A2.7,2.7,0,0,1,10.7,8,2.7,2.7,0,0,1,8,10.69,2.7,2.7,0,0,1,5.31,8,2.7,2.7,0,0,1,8,5.3Z"/>
</svg>
