<svg xmlns="http://www.w3.org/2000/svg" width="16" height="16" viewBox="0 0 16 16">
    <path d="M15.5,6h-8a.5.5,0,0,0-.5.5v3a.5.5,0,0,0,.5.5h8a.5.5,0,0,0,.5-.5v-3A.5.5,0,0,0,15.5,6ZM14,9a1,1,0,1,1,.71-.29A1,1,0,0,1,14,9ZM7.5,5h8a.5.5,0,0,0,.5-.5v-3a.5.5,0,0,0-.5-.5h-8a.5.5,0,0,0-.5.5v.63A3.88,3.88,0,0,0,6,2,4,4,0,0,0,2,6a4,4,0,0,0,.05.53A4,4,0,0,0,4,14H7v.5a.5.5,0,0,0,.5.5h8a.5.5,0,0,0,.5-.5v-3a.5.5,0,0,0-.5-.5h-8a.5.5,0,0,0-.5.5V13H4A3,3,0,0,1,2.54,7.4l.59-.33L3,6.39v-.1A2.07,2.07,0,0,1,3,6,3,3,0,0,1,6,3a2.89,2.89,0,0,1,1,.19V4.5A.5.5,0,0,0,7.5,5ZM14,2a1,1,0,1,1-.71.29A1,1,0,0,1,14,2Zm0,10a1,1,0,1,1-.71.29A1,1,0,0,1,14,12Z"/>
</svg>
