<svg xmlns="http://www.w3.org/2000/svg" width="16" height="16" viewBox="0 0 16 16">
    <path d="M5,8,3.9,8.71V7.29ZM7.57,6.26v-2L4.24,6.49l1.49,1Zm4.18.24L8.43,4.27v2l1.84,1.23Zm-7.51,3,3.33,2.22v-2L5.73,8.51Zm4.18.24v2l3.33-2.22-1.49-1ZM8,7,6.5,8,8,9,9.5,8Zm8,1A8,8,0,1,1,8,0,8,8,0,0,1,16,8ZM12.95,6.49a.41.41,0,0,0,0-.06V6.26l0,0v0l0,0,0,0,0,0h0l-4.52-3a.43.43,0,0,0-.47,0l-4.52,3h0l0,0,0,0,0,0v0l0,0v.17a.41.41,0,0,0,0,.06v3a.42.42,0,0,0,0,.06v.17l0,0v0l0,0,0,0,0,0h0l4.52,3a.42.42,0,0,0,.47,0l4.52-3h0l0,0,0,0,0,0v0l0,0V9.56a.42.42,0,0,0,0-.06ZM12.1,8.71V7.29L11,8Z"/>
</svg>
