<svg xmlns="http://www.w3.org/2000/svg" width="16" height="16" viewBox="0 0 16 16">
    <path d="M15,5.8a.49.49,0,0,0,0-.15l0-.06v0a.5.5,0,0,0-.13-.13h0L8.28,1.08h0A.49.49,0,0,0,8,1H8a.49.49,0,0,0-.25.07h0L1.22,5.42h0a.5.5,0,0,0-.13.13v0l0,.06A.49.49,0,0,0,1,5.8s0,0,0,0v4.33s0,0,0,0a.49.49,0,0,0,0,.15l0,.06v0a.49.49,0,0,0,.13.13h0l6.5,4.33h0a.45.45,0,0,0,.5,0h0l6.5-4.33a.48.48,0,0,0,.07-.08s.05,0,.07-.06v0l0-.06a.49.49,0,0,0,0-.15s0,0,0,0V5.83S15,5.81,15,5.8ZM8.5,2.43l5.1,3.4L11.25,7.4,8.5,5.57Zm-1,0V5.57L4.75,7.4,2.4,5.83ZM2,6.77,3.85,8,2,9.23Zm5.5,6.8-5.1-3.4L4.75,8.6,7.5,10.43Zm.5-4L5.65,8,8,6.43,10.35,8Zm.5,4V10.43L11.25,8.6l2.35,1.57ZM14,9.23,12.15,8,14,6.77Z"/>
</svg>
