<svg xmlns="http://www.w3.org/2000/svg" width="16" height="16" viewBox="0 0 16 16">
    <path d="M8,0a8,8,0,1,0,8,8A8,8,0,0,0,8,0ZM8,14.69A6.69,6.69,0,1,1,14.69,8,6.69,6.69,0,0,1,8,14.69Zm4.94-8.25V6.26l0,0v0l0,0,0,0,0,0h0l-4.52-3a.42.42,0,0,0-.47,0l-4.52,3h0l0,0,0,0,0,0v0l0,0v.17a.41.41,0,0,0,0,.06v3a.42.42,0,0,0,0,.06v.17l0,0v0l0,0,0,0,0,0h0l4.52,3a.42.42,0,0,0,.47,0l4.52-3h0l0,0,0,0,0,0v0l0,0V9.56a.44.44,0,0,0,0-.06v-3A.44.44,0,0,0,12.94,6.44ZM8.43,4.27l3.33,2.22-1.49,1L8.43,6.26Zm-.85,0v2L5.73,7.49l-1.49-1Zm-3.67,3L5,8,3.9,8.71Zm3.67,4.44L4.24,9.51l1.49-1L7.57,9.74ZM8,9,6.5,8,8,7,9.5,8Zm.43,2.72v-2l1.84-1.23,1.49,1Zm3.67-3L11,8l1.06-.71Z"/>
</svg>
