<svg xmlns="http://www.w3.org/2000/svg" width="16" height="16" viewBox="0 0 16 16">
    <path d="M4,4.5A.5.5,0,0,1,4.5,4h7a.5.5,0,0,1,0,1h-7A.5.5,0,0,1,4,4.5ZM11.5,8h-7a.5.5,0,0,0,0,1h7a.5.5,0,0,0,0-1Zm-8-1h9a.5.5,0,0,0,0-1h-9a.5.5,0,0,0,0,1ZM0,6.5C0,2.91,3.58,0,8,0s8,2.91,8,6.5S12.42,13,8,13l-.58,0A9.37,9.37,0,0,1,4,16a9.45,9.45,0,0,0,.36-3.71C1.78,11.22,0,9,0,6.5Zm1,0c0,2,1.44,3.91,3.77,4.87l.53.22.08.56a8,8,0,0,1,.05,1.65,5.88,5.88,0,0,0,1.13-1.33l.31-.53.61,0h.05L8,12c3.86,0,7-2.47,7-5.5S11.86,1,8,1,1,3.47,1,6.5Z"/>
</svg>
