<svg xmlns="http://www.w3.org/2000/svg" width="16" height="16" viewBox="0 0 16 16">
    <path d="M13,3H3A1,1,0,0,0,2,4v6a1,1,0,0,0,1,1H9l3,2V11h1a1,1,0,0,0,1-1V4A1,1,0,0,0,13,3Zm0,7H11v1.33L9,10H3V4H13ZM5.75,8H4.25A.25.25,0,0,1,4,7.75V6.25A.25.25,0,0,1,4.25,6h1.5A.25.25,0,0,1,6,6.25v1.5A.25.25,0,0,1,5.75,8Zm3,0H7.25A.25.25,0,0,1,7,7.75V6.25A.25.25,0,0,1,7.25,6h1.5A.25.25,0,0,1,9,6.25v1.5A.25.25,0,0,1,8.75,8Zm3,0h-1.5A.25.25,0,0,1,10,7.75V6.25A.25.25,0,0,1,10.25,6h1.5a.25.25,0,0,1,.25.25v1.5A.25.25,0,0,1,11.75,8Z"/>
</svg>
