<svg xmlns="http://www.w3.org/2000/svg" width="16" height="16" viewBox="0 0 16 16">
    <path d="M12,6.5a1,1,0,1,1-.29-.71A1,1,0,0,1,12,6.5Zm-4-1a1,1,0,1,0,.71.29A1,1,0,0,0,8,5.5Zm8,1c0,3.59-3.58,6.5-8,6.5l-.58,0A9.37,9.37,0,0,1,4,16a9.45,9.45,0,0,0,.36-3.71C1.78,11.22,0,9,0,6.5,0,2.91,3.58,0,8,0S16,2.91,16,6.5Zm-1,0c0-3-3.14-5.5-7-5.5S1,3.47,1,6.5c0,2,1.44,3.91,3.77,4.87l.53.22.08.56a8,8,0,0,1,.05,1.65,5.88,5.88,0,0,0,1.13-1.33l.31-.53.61,0h.05L8,12C11.86,12,15,9.53,15,6.5ZM5,5.5a1,1,0,1,0,.71.29A1,1,0,0,0,5,5.5Z"/>
</svg>
