<svg xmlns="http://www.w3.org/2000/svg" width="16" height="16" viewBox="0 0 16 16">
    <path d="M15,6.15a4.24,4.24,0,0,1,1,2.73,4.88,4.88,0,0,1-3.29,4.34A7.09,7.09,0,0,0,13,16a7,7,0,0,1-2.55-2.27l-.44,0a7,7,0,0,1-3.41-.87c.15-.16.29-.33.42-.51C11.23,12.37,14.69,9.62,15,6.15ZM7,11.38l-.51,0a8.2,8.2,0,0,1-3,2.65,8.27,8.27,0,0,0,.32-3.24A5.69,5.69,0,0,1,0,5.69C0,2.55,3.13,0,7,0s7,2.55,7,5.69S10.87,11.38,7,11.38Zm-.41-.89.41,0c3.38,0,6.13-2.16,6.13-4.81S10.38.88,7,.88.88,3,.88,5.69a4.81,4.81,0,0,0,3.3,4.26l.46.19.07.49a7,7,0,0,1,0,1.45,5.15,5.15,0,0,0,1-1.17L6,10.45l.53,0Z"/>
</svg>
