<svg xmlns="http://www.w3.org/2000/svg" width="16" height="16" viewBox="0 0 16 16">
    <path d="M14.91,2.53a.5.5,0,0,1-.63-.31c0-.06-.47-1.16-2.53-1.16A10.07,10.07,0,0,0,8.2,2.5c-1.6.86-3.36,1.8-4.82,1.8a2.48,2.48,0,0,1-1.71-.62.5.5,0,0,1,.66-.75c1.11,1,3.39-.24,5.4-1.32a10.2,10.2,0,0,1,4-1.56c2.83,0,3.45,1.77,3.47,1.84A.5.5,0,0,1,14.91,2.53ZM.75,12.41l3.54,3.54,2.12-2.12L2.87,10.29ZM14.19,3.22l.71.71-3.78,8-4,1.17L3.58,9.58l1.17-4,8-3.78.71.71L9.24,6.75a1,1,0,0,0-1,.27A1,1,0,1,0,9.67,8.44a1,1,0,0,0,.27-1Z"/>
</svg>
