<svg xmlns="http://www.w3.org/2000/svg" width="16" height="16" viewBox="0 0 16 16">
    <path d="M4.9,3.8A2.47,2.47,0,0,0,3.17,2.09,2.5,2.5,0,0,0,1.72,6.87a11.64,11.64,0,0,1,1.76.7l1,.53-1.14.49a9.7,9.7,0,0,1-1.41.48A2.5,2.5,0,0,0,.09,12.18a2.47,2.47,0,0,0,1.73,1.73A2.49,2.49,0,0,0,4,9.55L6.1,8.92l6.21,3.21a3.25,3.25,0,0,0,3.53-.31.49.49,0,0,0,.13-.14.5.5,0,0,0-.29-.65L8.36,8.22,15.65,6A.5.5,0,0,0,16,5.35a.53.53,0,0,0-.16-.18,3.34,3.34,0,0,0-3.48-.46L6.17,7.38,4,6.52A2.5,2.5,0,0,0,4.9,3.8ZM2.5,13A1.5,1.5,0,1,1,4,11.5,1.5,1.5,0,0,1,2.5,13Zm0-7A1.5,1.5,0,1,1,4,4.5,1.5,1.5,0,0,1,2.5,6Z"/>
</svg>
