<svg xmlns="http://www.w3.org/2000/svg" width="16" height="16" viewBox="0 0 16 16">
    <path d="M11.15,13.15a.5.5,0,1,1-.15.35A.5.5,0,0,1,11.15,13.15ZM15,3.25v9.5a2.18,2.18,0,0,1-1.06,1.81,7.18,7.18,0,0,1-2.61,1.09A15.33,15.33,0,0,1,8,16a15.33,15.33,0,0,1-3.33-.34,7.18,7.18,0,0,1-2.61-1.09A2.18,2.18,0,0,1,1,12.75V3.25A2.18,2.18,0,0,1,2.06,1.44,7.17,7.17,0,0,1,4.67.34,15.32,15.32,0,0,1,8,0a15.32,15.32,0,0,1,3.33.34,7.17,7.17,0,0,1,2.61,1.09A2.18,2.18,0,0,1,15,3.25Zm-1,7.63a5,5,0,0,1-2.41,1.2A14.53,14.53,0,0,1,8,12.5a14.53,14.53,0,0,1-3.59-.42A5,5,0,0,1,2,10.88v1.88q0,.94,1.75,1.59A12.15,12.15,0,0,0,8,15a12.15,12.15,0,0,0,4.25-.66Q14,13.69,14,12.75Zm0-3a5,5,0,0,1-2.41,1.2A14.53,14.53,0,0,1,8,9.5a14.53,14.53,0,0,1-3.59-.42A5,5,0,0,1,2,7.88V9.75q0,.94,1.75,1.59A12.15,12.15,0,0,0,8,12a12.15,12.15,0,0,0,4.25-.66Q14,10.69,14,9.75ZM14,5Q12.06,6.5,8,6.5T2,5V6.75q0,.94,1.75,1.59A12.15,12.15,0,0,0,8,9a12.15,12.15,0,0,0,4.25-.66Q14,7.69,14,6.75Zm0-1.78q0-.94-1.75-1.59A12.15,12.15,0,0,0,8,1a12.15,12.15,0,0,0-4.25.66Q2,2.31,2,3.25T3.75,4.84A12.15,12.15,0,0,0,8,5.5a12.15,12.15,0,0,0,4.25-.66Q14,4.19,14,3.25ZM11,10.5a.5.5,0,1,0,.15-.35A.5.5,0,0,0,11,10.5ZM11.5,8a.5.5,0,1,0-.35-.15A.5.5,0,0,0,11.5,8Z"/>
</svg>
