<svg xmlns="http://www.w3.org/2000/svg" width="16" height="16" viewBox="0 0 16 16">
    <path d="M13.5,9h2a.5.5,0,0,0,.5-.5v-7a.5.5,0,0,0-.5-.5h-2a.5.5,0,0,0-.5.5v7A.5.5,0,0,0,13.5,9ZM14,2h1V3H14Zm0,2h1V8H14ZM2.5,10H5.81c.7,0,1.43.69,1.19,1.34L5.5,14c-.28.71,1,1.55,1.72,1.89a1,1,0,0,0,.47.11.92.92,0,0,0,.81-.45c.66-1.16,1.4-2.37,2.27-3.62A7.4,7.4,0,0,0,12,7.67V2a2,2,0,0,0-2-2H3.7a2,2,0,0,0-2,1.61l-1.2,6A2,2,0,0,0,2.5,10Zm.22-8.2a1,1,0,0,1,1-.8H10a1,1,0,0,1,1,1V7.67a6.47,6.47,0,0,1-1,3.68C9.17,12.48,8.44,13.64,7.67,15a4.27,4.27,0,0,1-1.14-.79l1.34-2.37,0-.07,0-.08A1.83,1.83,0,0,0,7.69,10,2.36,2.36,0,0,0,5.81,9H2.5a1,1,0,0,1-1-1.2Z"/>
</svg>
