<svg xmlns="http://www.w3.org/2000/svg" width="16" height="16" viewBox="0 0 16 16">
    <path d="M14,0H8.27A8.18,8.18,0,0,0,0,7.47,8,8,0,0,0,8,16h6a2,2,0,0,0,2-2V2A2,2,0,0,0,14,0ZM8,10H6.22a9.37,9.37,0,0,1,0-4H8ZM8,2V5H6.48A12.49,12.49,0,0,1,7.9,2Zm-1.37.16A13,13,0,0,0,5.43,5H2.81A6,6,0,0,1,6.63,2.16ZM2,8a6,6,0,0,1,.35-2H5.2a10.25,10.25,0,0,0,0,4H2.35A6,6,0,0,1,2,8Zm.81,3H5.43a13,13,0,0,0,1.19,2.84A6,6,0,0,1,2.81,11ZM7.9,14a12.49,12.49,0,0,1-1.41-3H8v3ZM10,13.5a1,1,0,1,1,.71-.29A1,1,0,0,1,10,13.5ZM10,9a1,1,0,1,1,.71-.29A1,1,0,0,1,10,9Zm0-4.5a1,1,0,1,1,.71-.29A1,1,0,0,1,10,4.5Z"/>
</svg>
