<svg xmlns="http://www.w3.org/2000/svg" width="16" height="16" viewBox="0 0 16 16">
    <path d="M8,0C3.6,0,0,3.6,0,8s3.6,8,8,8s8-3.6,8-8S12.4,0,8,0z M13.4,3.5c1,1.2,1.6,2.7,1.6,4.4c-1.9-0.4-3.7-0.4-5.1-0.1
	c-0.2-0.5-0.4-1-0.7-1.4C10.7,5.8,12.1,4.8,13.4,3.5z M12.7,2.8C11.5,4,10.2,4.9,8.8,5.5C7.7,3.5,6.6,2.1,6,1.3C6.6,1.1,7.3,1,8,1
	C9.8,1,11.4,1.7,12.7,2.8z M5,1.7c0.5,0.6,1.7,2.1,2.9,4.2c-2.5,0.9-5,0.9-6.7,0.8C1.5,4.5,3,2.7,5,1.7z M1,8c0-0.1,0-0.2,0-0.3
	c0.4,0,0.7,0,1.2,0c1.7,0,3.9-0.2,6.1-1C8.5,7.2,8.7,7.6,8.9,8c-3,0.9-4.9,3-6.1,4.6C1.7,11.4,1,9.8,1,8z M3.5,13.3
	c1-1.5,2.8-3.5,5.7-4.4c0.6,1.7,1,3.6,1.2,5.6C9.7,14.8,8.8,15,8,15C6.3,15,4.7,14.4,3.5,13.3z M11.4,14.1c-0.2-2-0.6-3.8-1.2-5.4
	c1.4-0.2,2.9-0.2,4.7,0.2C14.6,11.2,13.3,13.1,11.4,14.1z"/>
</svg>
