<svg xmlns="http://www.w3.org/2000/svg" width="16" height="16" viewBox="0 0 16 16">
    <path d="M8,0a8,8,0,1,0,8,8A8,8,0,0,0,8,0Zm6.11,5,.17-.09c.05.11.11.21.16.32H14l-1.25,1.5V7.5l.75,1.25L15,8.54A7,7,0,0,1,8.08,15l.17-1,1.5-1.75,1-2L9,9.25l-.25-.5L6.75,8,6,8.5,5.5,10l.75,1.25.75.5v2.5l.29.71A7,7,0,0,1,2,4.49l.17.79L2.5,6.63l.13-.12L2.38,5.38l.25.13.5,1.13V7L4,7.5h.25L5,7.88l.11.28.51.35H6l.11-.15-.49-.1-.25-.37v-.5H4.75l.38-.5H4.88l-.37.25L4,6.63,4.25,6l.5-.25L5,5.88l.25-.25.38.13.13.13V6l.13.38L6,6l-.12-.25.75-.62.13-.37,1.5-.87.13-.37-.62.13.63-.37,1-.12L9,2.25l-.37.25V2.13L8.13,2l-.5.5-.12.38-.37.38L7,2.88l-.75-.5L7,1.88l.38-.12.75-.25.13-.25-1.8-.07A7,7,0,0,1,8,1h.14l.24.12h.25L9,1.5l-.5.25L9,2l.25-.37H9.5l.13-.12-.24-.36a6.93,6.93,0,0,1,1.16.35l0,.14V2l.5.25.28-.43A7,7,0,0,1,13.81,4.1l-.06.15v.63Z"/>
</svg>
