<svg xmlns="http://www.w3.org/2000/svg" width="16" height="16" viewBox="0 0 16 16">
    <path d="M8,0A2.34,2.34,0,0,0,5.89,1.31L.25,12.57A2.36,2.36,0,0,0,2.37,16H13.63a2.36,2.36,0,0,0,2.11-3.42L10.11,1.31A2.34,2.34,0,0,0,8,0Zm6.79,14.35a1.34,1.34,0,0,1-1.16.65H2.37a1.36,1.36,0,0,1-1.22-2L6.78,1.76a1.36,1.36,0,0,1,2.44,0L14.85,13A1.34,1.34,0,0,1,14.79,14.35ZM9,11.25v1.5a.25.25,0,0,1-.25.25H7.25A.25.25,0,0,1,7,12.75v-1.5A.25.25,0,0,1,7.25,11h1.5A.25.25,0,0,1,9,11.25Zm0-6v4.5a.25.25,0,0,1-.25.25H7.25A.25.25,0,0,1,7,9.75V5.25A.25.25,0,0,1,7.25,5h1.5A.25.25,0,0,1,9,5.25Z"/>
</svg>
