<svg xmlns="http://www.w3.org/2000/svg" width="16" height="16" viewBox="0 0 16 16">
    <path d="M5.9,4.48l-.76-.76A6.15,6.15,0,0,1,8,3c3.75,0,6,3.5,8,5-1,.77-2.12,2.06-3.44,3.14l-.71-.71c.65-.52,1.25-1.1,1.82-1.66l.8-.77-.8-.77C12.12,5.72,10.36,4,8,4A5.06,5.06,0,0,0,5.9,4.48ZM14,14l-.71.71-2.43-2.43A6.14,6.14,0,0,1,8,13C4.25,13,2,9.5,0,8c1-.77,2.12-2.06,3.45-3.14L1.29,2.71,2,2ZM6.36,7.77a1.64,1.64,0,0,0,0,.23A1.67,1.67,0,0,0,8,9.67l.23,0Zm3.74,3.74L8.91,10.32A2.49,2.49,0,0,1,5.68,7.09L4.16,5.57A24.08,24.08,0,0,0,2.34,7.23L1.54,8l.8.77C3.88,10.28,5.64,12,8,12A5,5,0,0,0,10.1,11.52Zm.22-2.61A2.49,2.49,0,0,0,7.09,5.68l.68.68.23,0A1.67,1.67,0,0,1,9.67,8a1.64,1.64,0,0,1,0,.23Z"/>
</svg>
