<svg xmlns="http://www.w3.org/2000/svg" width="16" height="16" viewBox="0 0 16 16">
    <path d="M11,11a1,1,0,0,1-1,1H1a1,1,0,0,1,0-2H2l1.5,1.5A5.12,5.12,0,0,1,7.12,10H10A1,1,0,0,1,11,11ZM6.7,3.21,9.57,2A.5.5,0,0,1,10,2a.5.5,0,0,1,.26.35L10.83,5H9.61a.5.5,0,0,0-.49.58A6.06,6.06,0,0,1,10,6h5.93L16,5.49A.45.45,0,0,0,15.5,5H11.85l-.61-2.89A1.5,1.5,0,0,0,9.17,1L6.3,2.29a.5.5,0,1,0,.4.92Zm.52,2.93-.54.54a.25.25,0,0,1-.35-.35l.27-.27H6.31l-.64.64a.25.25,0,0,1-.35-.35L5.64,6H5.35l-.67.67a.25.25,0,0,1-.35-.35L4.6,6l-.31,0-.62.62a.25.25,0,0,1-.35-.35l.13-.13C1.24,6.61,0,7.7,0,9H11C11,7.64,9.63,6.51,7.22,6.14ZM10,13,8.5,14.5h0A5.12,5.12,0,0,0,4.88,13H0c0,1.66,2,3,5.5,3S11,14.66,11,13Zm2-1h3.31l.52-5H11.24A3.11,3.11,0,0,1,12,9Zm0,1a3.12,3.12,0,0,1-.76,2H15l.21-2Z"/>
</svg>
