<svg xmlns="http://www.w3.org/2000/svg" width="16" height="16" viewBox="0 0 16 16">
    <path d="M15.82.18A7.76,7.76,0,0,1,15,5.58a5.52,5.52,0,0,1-2.89,0A2.1,2.1,0,0,0,15,7a7.26,7.26,0,0,1-4.14,4.52L7,10.25l1.2,2a13.76,13.76,0,0,1-2.56.07,3,3,0,0,0-2.4,1A23.84,23.84,0,0,1,0,16V15a15.12,15.12,0,0,0,2.88-2.75,3,3,0,0,0,.66-1.6A11.32,11.32,0,0,1,6.43,3.94,13.7,13.7,0,0,0,8,8,28.26,28.26,0,0,1,8,2.47,12.49,12.49,0,0,1,10.77.79a9.37,9.37,0,0,0,.14,3.8A16.3,16.3,0,0,0,12.3.26,6.83,6.83,0,0,1,15.82.18Z"/>
</svg>
