<svg xmlns="http://www.w3.org/2000/svg" width="16" height="16" viewBox="0 0 16 16">
    <path d="M13.19,12.91A4,4,0,0,1,9.28,14L4.56,12.83a.63.63,0,0,1,.25-1.23L6.61,12a.25.25,0,0,0,.23-.42L2.56,7.27a.5.5,0,0,1,.71-.71L6.1,9.39a.5.5,0,1,0,.71-.71L6.1,8a.5.5,0,0,1,.71-.71L7.51,8a.5.5,0,1,0,.71-.71l-.71-.71a.5.5,0,0,1,.71-.71l.71.71a.5.5,0,0,0,.71-.71h0a.5.5,0,1,1,.71-.71l2.73,2.73A3.58,3.58,0,0,1,13.19,12.91ZM5,5,3.91,3.91A6.68,6.68,0,0,1,8.68,2.13a6.75,6.75,0,0,1,4.41,2.65.5.5,0,0,0,.82-.57A7.66,7.66,0,0,0,8.78,1.14,7.68,7.68,0,0,0,3.2,3.2L2,2V5Z"/>
</svg>
