<svg xmlns="http://www.w3.org/2000/svg" width="16" height="16" viewBox="0 0 16 16">
    <path d="M3.09,7.88,5.82,5.15a.5.5,0,0,1,.71.71h0a.5.5,0,0,0,.71.71l.71-.71a.5.5,0,1,1,.71.71l-.71.71A.5.5,0,0,0,8.65,8l.71-.71a.5.5,0,0,1,.71.71l-.71.71a.5.5,0,1,0,.71.71l2.83-2.83a.5.5,0,0,1,.71.71L9.33,11.54a.25.25,0,0,0,.23.42l1.81-.36a.63.63,0,1,1,.25,1.23L6.88,14A4,4,0,0,1,3,12.91,3.58,3.58,0,0,1,3.09,7.88ZM14.17,5V2L13,3.2A7.68,7.68,0,0,0,7.39,1.14,7.66,7.66,0,0,0,2.25,4.22a.5.5,0,0,0,.82.57A6.75,6.75,0,0,1,7.49,2.13a6.68,6.68,0,0,1,4.77,1.78L11.17,5Z"/>
</svg>
