<svg xmlns="http://www.w3.org/2000/svg" width="16" height="16" viewBox="0 0 16 16">
    <path d="M11.65,11.34,8.92,14.08a3.58,3.58,0,0,1-5,.11,4,4,0,0,1-1.08-3.91L4,5.56a.63.63,0,0,1,1.23.25L4.83,7.61a.25.25,0,0,0,.42.23L9.53,3.56a.5.5,0,1,1,.71.71L7.41,7.1a.5.5,0,1,0,.71.71l.71-.71a.5.5,0,0,1,.71.71l-.71.71a.5.5,0,0,0,.71.71l.71-.71a.5.5,0,0,1,.71.71l-.71.71a.5.5,0,0,0,.71.71.5.5,0,0,1,.71.71Zm2.11-9.1A11.76,11.76,0,0,0,10.6.59,8.55,8.55,0,0,0,2.21,2.21L1,1V4H4L2.91,2.91C7.15-.41,11.17,1.61,13,3L12,4h3V1Z"/>
</svg>
