<svg xmlns="http://www.w3.org/2000/svg" width="16" height="16" viewBox="0 0 16 16">
    <path d="M15.33,10.38a2.92,2.92,0,0,1-1,1.92c-1.44,1.42-2.77,1.4-3.37,2a2.91,2.91,0,0,0,1.85-.62c-1.21,1.64-4.69,1.45-4.69,1.45s.06.15.37.2a8.42,8.42,0,0,1-2.32-.39,1.72,1.72,0,0,0,.64.34,8.14,8.14,0,0,1-5.58-3.91,7.1,7.1,0,0,1-1-3.27,8.23,8.23,0,0,0-.15.86A7.77,7.77,0,0,1,.39,6,5.31,5.31,0,0,0,0,6.91,8.17,8.17,0,0,1,.67,4.64,3.68,3.68,0,0,1,1,4S1,4,1,3.91a4.58,4.58,0,0,1,.09-1.27,3.72,3.72,0,0,1,.15-.52s0,.06,0,.08h0A1.3,1.3,0,0,1,1.35,2a1,1,0,0,1,.12-.22s0,.13,0,.12l.06-.15a.92.92,0,0,1,.33-.52,2.21,2.21,0,0,0,.23.86s0-.06,0,0a2.23,2.23,0,0,0,.63.7,3.31,3.31,0,0,1,1.84,0h0a1.67,1.67,0,0,1,.22-.25.68.68,0,0,1,0,.09,1.29,1.29,0,0,1,.46-.43.31.31,0,0,0,0,.07A2.37,2.37,0,0,1,6,1.81s-.11.07-.16.12a1.1,1.1,0,0,1,.38-.13c.22,0,.48,0,.43.05A2.92,2.92,0,0,0,6.43,2s.11,0,.08,0a2.64,2.64,0,0,0-.9,1.37h0A.92.92,0,0,0,6.43,4H7.2a1.79,1.79,0,0,1,.52.06c.18.07.12.39.06.52a.67.67,0,0,1-.23.32h0L7.49,5c-.21.23-1.17.67-1.41,1h0l0,.1c-.05,0-.09,0-.06,0s0,.1.06.25a1.05,1.05,0,0,1,0,.47l-.23-.11h0a.5.5,0,0,1,.2.2C6.07,6.95,6,7,6,7a.49.49,0,0,0-.19-.14,4,4,0,0,0-.4-.16h0l.08.12-.18-.08A.65.65,0,0,0,5,7.25c0,.22-.05.59.72,1l-.1,0a3.63,3.63,0,0,0,.51.24c.05,0-.17,0-.11,0l.15.07c.81.32,1.3-.14,1.87-.28a1.53,1.53,0,0,1,1.53.43c.23.26,0,.56-.26.49s-.62.21-1.17.59a3.15,3.15,0,0,1-2.38.31,3.21,3.21,0,0,0,.89.71c.33.11.8.06,1,.27a1,1,0,0,0-.61,0,3.56,3.56,0,0,0,2.23.39,1.71,1.71,0,0,0,.81-.3.35.35,0,0,1-.2.28c.1.07.31-.18.53-.42l.18-.16-.1.14a.71.71,0,0,0,.15-.15.55.55,0,0,1,.24-.18.63.63,0,0,1,0,.27.1.1,0,0,0,.07,0c.16,0,.51-.21.86-1a5,5,0,0,0,.48-1.7,2,2,0,0,1,.19.61,7.14,7.14,0,0,0,.12-3.32,4.6,4.6,0,0,1,.72,1.15,5.13,5.13,0,0,0-1.71-4.3,3,3,0,0,1,1.53.86A6,6,0,0,0,10.77.72,6.56,6.56,0,0,1,14.7,3.78,2.8,2.8,0,0,0,14,2.06a3.81,3.81,0,0,1,1.21,2.13,8.36,8.36,0,0,1-.17,3.95,2.33,2.33,0,0,0,.7-2.74A6.4,6.4,0,0,1,15.15,10c-.32.57-.92,1.06-1.36,1.89C14.51,11.53,15.2,11.1,15.33,10.38Z"/>
</svg>
