<svg xmlns="http://www.w3.org/2000/svg" width="16" height="16" viewBox="0 0 16 16">
    <path d="M14.79,13.63,10.46,7.49A2.47,2.47,0,0,1,10,6V1h.5A.5.5,0,0,0,11,.5a.5.5,0,0,0-.5-.5h-5A.5.5,0,0,0,5,.5a.5.5,0,0,0,.5.5H6V6a2.47,2.47,0,0,1-.46,1.44L1.21,13.63A1.5,1.5,0,0,0,2.43,16H13.57a1.5,1.5,0,0,0,1.22-2.37ZM14,14.73a.48.48,0,0,1-.44.27H2.43A.48.48,0,0,1,2,14.73a.49.49,0,0,1,0-.52L6.36,8.07A3.51,3.51,0,0,0,7,6V1H9V6a3.51,3.51,0,0,0,.64,2L14,14.21A.49.49,0,0,1,14,14.73Zm-1.68-1.12-2.25-3.18A1,1,0,0,0,9.26,10H6.74a1,1,0,0,0-.82.42L3.67,13.61a.25.25,0,0,0,.2.39h8.25A.25.25,0,0,0,12.33,13.61Z"/>
</svg>
