<svg xmlns="http://www.w3.org/2000/svg" width="16" height="16" viewBox="0 0 16 16">
    <path d="M9.51,1.2A14.37,14.37,0,0,0,1.18,9.61,7.3,7.3,0,0,1,1,8,7,7,0,0,1,4.47,2,6.83,6.83,0,0,1,8,1,7.21,7.21,0,0,1,9.51,1.2ZM12,2.29A7,7,0,0,1,13.46,3.7,14.31,14.31,0,0,0,3.7,13.51,6.61,6.61,0,0,1,2.29,12,14.34,14.34,0,0,1,12,2.29ZM5.28,14.44a14.32,14.32,0,0,1,9.11-9.17,6.7,6.7,0,0,1,.49,1.78,14.37,14.37,0,0,0-7.83,7.87A7,7,0,0,1,5.28,14.44ZM15,15a33.72,33.72,0,0,1-3.35-1A6.86,6.86,0,0,1,9,14.9,14.4,14.4,0,0,1,14.87,9,6.72,6.72,0,0,1,14,11.6,33.78,33.78,0,0,1,15,15Z"/>
</svg>
