<svg xmlns="http://www.w3.org/2000/svg" width="16" height="16" viewBox="0 0 16 16">
    <path d="M12.32,0H3.82A1.4,1.4,0,0,0,2.67.46a1.52,1.52,0,0,0-.37,1V15q0,.75.54.93a.78.78,0,0,0,1-.21L7.93,11a.31.31,0,0,1,.21-.11h2.57a1.25,1.25,0,0,0,1-.34,1.91,1.91,0,0,0,.39-.87L12.44,8q.3-1.46.68-3.41T13.64,2Q14,0,12.32,0ZM12.1,9.63,12.44,8q.3-1.46.68-3.41T13.64,2Zm-.29-7.31-.36,1.82a.54.54,0,0,1-.54.43H7.5q-.64,0-.64.61v.46a.57.57,0,0,0,.64.64h2.93a.46.46,0,0,1,.34.18.45.45,0,0,1,.12.39q0,.14-.2.95t-.16.87A.51.51,0,0,1,10,9.1H7.71a1,1,0,0,0-.82.39L4.11,12.84s-.07,0-.07,0V2.28a.55.55,0,0,1,.54-.54h6.81a.42.42,0,0,1,.32.16A.48.48,0,0,1,11.82,2.32Z"/>
</svg>
