<svg xmlns="http://www.w3.org/2000/svg" width="16" height="16" viewBox="0 0 16 16">
    <path d="M13.07,4.71l-1,4.92Q12.39,8.56,13.07,4.71ZM12.32,0H3.82A1.4,1.4,0,0,0,2.67.46a1.52,1.52,0,0,0-.37,1V15q0,.75.54.93a.78.78,0,0,0,1-.21L7.93,11a.31.31,0,0,1,.21-.11h2.57A1.36,1.36,0,0,0,12.1,9.6l1-4.89q.14-.57.32-1.48T13.64,2Q14,0,12.32,0Zm0,2.28Q11.17,7.85,11,8.6a2.15,2.15,0,0,1-.32.91,1.24,1.24,0,0,1-.86.2H7.61a.29.29,0,0,0-.21.07L4.57,13a5.87,5.87,0,0,1-1,1.11q-.11,0-.11-1.36V2.14a1.49,1.49,0,0,1,.14-.86,1.58,1.58,0,0,1,.89-.14h7q.82,0,.93.16A1.84,1.84,0,0,1,12.28,2.28Zm.78,2.43L13.64,2q-.07.29-.25,1.2T13.07,4.71ZM10.6,2.28H5a.35.35,0,0,0-.39.39v8.24s0,0,0,0L6.54,8.67a.78.78,0,0,1,.61-.29H9.35q.39,0,.39-.32a13.65,13.65,0,0,0,.43-1.93.33.33,0,0,0-.07-.29.34.34,0,0,0-.29-.14H7.54q-.29,0-.29-.46V5q0-.46.29-.46h2.68a.37.37,0,0,0,.39-.32l.29-1.57a.31.31,0,0,0-.05-.27A.27.27,0,0,0,10.6,2.28Z"/>
</svg>
