<svg xmlns="http://www.w3.org/2000/svg" width="16" height="16" viewBox="0 0 16 16">
    <path d="M7.79,2.72a2.63,2.63,0,0,0,0-.34A1.07,1.07,0,0,0,7.7,2.1a.4.4,0,0,0-.19-.21.73.73,0,0,0-.34-.07,1.36,1.36,0,0,0-.7.21,3.25,3.25,0,0,0-1.42,1.7,6.33,6.33,0,0,0-.48,2.41,3.8,3.8,0,0,0,.08.76,3.28,3.28,0,0,0,.24.72,1.34,1.34,0,0,0,.47.56,1.26,1.26,0,0,0,.73.21h.34l.14,0A.25.25,0,0,0,6.7,8.3a.32.32,0,0,0,.06-.14l.43-2.07L7.62,4A6.72,6.72,0,0,0,7.79,2.72Zm6.74,5.86a.16.16,0,0,1-.07.12.21.21,0,0,1-.14.06h-.05l-.55-.1-.64-.11a4,4,0,0,0-.56,0,7,7,0,0,0-3.14.83.39.39,0,0,0-.19.24q-.09.32-.22.94t-.2.9A7.15,7.15,0,0,1,8.14,13a8,8,0,0,1-1,1.47,4.71,4.71,0,0,1-1.38,1.1A3.49,3.49,0,0,1,4.1,16a2.52,2.52,0,0,1-1.92-.75,2.73,2.73,0,0,1-.71-2,3.61,3.61,0,0,1,.17-1,3,3,0,0,1,.56-1,1.12,1.12,0,0,1,.87-.47,3.27,3.27,0,0,1,1.07.3q.73.3.74.55l-.15.11L4.4,12a4.63,4.63,0,0,0-.41.4,2,2,0,0,0-.35.54,1.61,1.61,0,0,0-.14.66.72.72,0,0,0,.15.47.53.53,0,0,0,.43.18,1.21,1.21,0,0,0,.76-.28,2.37,2.37,0,0,0,.59-.7,6.17,6.17,0,0,0,.43-.94,8.13,8.13,0,0,0,.29-1,7.68,7.68,0,0,0,.14-.8v-.08s0,0,0,0H5.95A4.3,4.3,0,0,1,2.81,9.34,4.16,4.16,0,0,1,1.69,6.23a6.74,6.74,0,0,1,.31-2,7.67,7.67,0,0,1,.86-1.88A5.59,5.59,0,0,1,4.25.88,4.23,4.23,0,0,1,6.07.08,5.54,5.54,0,0,1,7,0q3.34,0,3.34,3.22A12.32,12.32,0,0,1,10,5.65q-.34,1.56-.38,1.88l0,0a12.22,12.22,0,0,1,1.63-.79,4.18,4.18,0,0,1,1.5-.28,1.27,1.27,0,0,1,.47.12,3.09,3.09,0,0,1,.71.92A3.48,3.48,0,0,1,14.53,8.58Z"/>
</svg>
