<svg xmlns="http://www.w3.org/2000/svg" width="16" height="16" viewBox="0 0 16 16">
    <path d="M8,0a8,8,0,1,0,8,8A8,8,0,0,0,8,0ZM8,14H7.9a12.49,12.49,0,0,1-1.41-3h3A12.49,12.49,0,0,1,8.1,14ZM6.22,10a9.37,9.37,0,0,1,0-4H9.78a9.37,9.37,0,0,1,0,4ZM2,8a6,6,0,0,1,.35-2H5.2a10.25,10.25,0,0,0,0,4H2.35A6,6,0,0,1,2,8ZM8,2h.1A12.49,12.49,0,0,1,9.52,5h-3A12.49,12.49,0,0,1,7.9,2Zm2.8,4h2.85a5.89,5.89,0,0,1,0,4H10.8a10.25,10.25,0,0,0,0-4Zm2.39-1H10.57A13,13,0,0,0,9.37,2.16,6,6,0,0,1,13.19,5ZM6.63,2.16A13,13,0,0,0,5.43,5H2.81A6,6,0,0,1,6.63,2.16ZM2.81,11H5.43a13,13,0,0,0,1.19,2.84A6,6,0,0,1,2.81,11Zm6.56,2.84A13,13,0,0,0,10.57,11h2.62A6,6,0,0,1,9.37,13.84Z"/>
</svg>
