<svg xmlns="http://www.w3.org/2000/svg" width="16" height="16" viewBox="0 0 16 16">
    <path d="M16,8.37a6.45,6.45,0,0,1-.06.93H5.66a2.82,2.82,0,0,0,1,2.18,3.33,3.33,0,0,0,2.3.88,3.45,3.45,0,0,0,1.66-.42,3.1,3.1,0,0,0,1.22-1.17h3.78a7,7,0,0,1-1.52,2.51,7.2,7.2,0,0,1-8.43,1.54,8,8,0,0,1-3.52,1Q0,15.86,0,13.51a9.29,9.29,0,0,1,.4-2.46,12.87,12.87,0,0,1,1-2A20.35,20.35,0,0,1,5.62,3.6,12,12,0,0,0,1.8,6.76a7,7,0,0,1,2.53-4A7,7,0,0,1,8.81,1.18h.4a9.65,9.65,0,0,1,3.87-1,4.27,4.27,0,0,1,1,.12A2.78,2.78,0,0,1,15,.62a1.66,1.66,0,0,1,.59.68,2.31,2.31,0,0,1,.21,1,6.6,6.6,0,0,1-.67,2.55A7.06,7.06,0,0,1,16,8.37Zm-.62-5.71a1.53,1.53,0,0,0-.47-1.18A1.73,1.73,0,0,0,13.68,1a5.41,5.41,0,0,0-2.27.63,7.11,7.11,0,0,1,2,1.17,7.21,7.21,0,0,1,1.52,1.75A5.83,5.83,0,0,0,15.38,2.65ZM1.14,13.7a1.56,1.56,0,0,0,.43,1.18,1.66,1.66,0,0,0,1.2.42,5.08,5.08,0,0,0,2.38-.74,7.19,7.19,0,0,1-1.91-1.63A7,7,0,0,1,2,10.73,7.36,7.36,0,0,0,1.14,13.7Zm4.5-6.37h6.5a2.85,2.85,0,0,0-1-2.12,3.39,3.39,0,0,0-4.49,0A2.85,2.85,0,0,0,5.64,7.33Z"/>
</svg>
