<svg xmlns="http://www.w3.org/2000/svg" width="16" height="16" viewBox="0 0 16 16">
    <path d="M15,8a3.49,3.49,0,0,1-3.5,3.47c-2.11,0-3.76-2.93-3.94-3.26C7.15,7.48,5.79,5.5,4.5,5.5A2.5,2.5,0,0,0,2,8.06a2.58,2.58,0,0,0,1.73,2.29,2.22,2.22,0,0,0,.77.14,2.75,2.75,0,0,0,2-1.12.26.26,0,0,1,.2-.09.24.24,0,0,1,.15.05l.39.31a.25.25,0,0,1,0,.36A3.75,3.75,0,0,1,4.5,11.5,3.32,3.32,0,0,1,3,11.14,3.55,3.55,0,0,1,1,8.4,3.5,3.5,0,0,1,4.5,4.5c2.11,0,3.76,2.93,3.94,3.26.41.76,1.77,2.74,3.06,2.74A2.49,2.49,0,0,0,14,8,2.52,2.52,0,0,0,11.5,5.5a2.75,2.75,0,0,0-2,1.12.26.26,0,0,1-.2.09.24.24,0,0,1-.15-.05l-.39-.31a.25.25,0,0,1,0-.36A3.76,3.76,0,0,1,11.5,4.5,3.52,3.52,0,0,1,15,8Z"/>
</svg>
