<svg xmlns="http://www.w3.org/2000/svg" width="16" height="16" viewBox="0 0 16 16">
    <path d="M8,0a8,8,0,1,0,5.66,2.34A8,8,0,0,0,8,0ZM8,14a6,6,0,1,1,4.24-1.76A6,6,0,0,1,8,14ZM7,5a1,1,0,1,1,.29.71A1,1,0,0,1,7,5Zm2.72,6.12a.25.25,0,0,1-.05.31A2.55,2.55,0,0,1,8.09,12a2.44,2.44,0,0,1-.48,0,1.32,1.32,0,0,1-1-.71,1.82,1.82,0,0,1,.12-1.61l.5-1c.27-.53.11-.64,0-.7a.36.36,0,0,0-.2,0A1.93,1.93,0,0,0,6.58,8a.25.25,0,0,1-.25-.42A2.54,2.54,0,0,1,7.91,7a2.39,2.39,0,0,1,.48,0,1.32,1.32,0,0,1,1,.71,1.82,1.82,0,0,1-.12,1.61l-.5,1c-.27.53-.11.64,0,.7a.36.36,0,0,0,.2,0A1.94,1.94,0,0,0,9.42,11,.25.25,0,0,1,9.72,11.12Z"/>
</svg>
