<svg xmlns="http://www.w3.org/2000/svg" width="16" height="16" viewBox="0 0 16 16">
    <path d="M1,16H15a1,1,0,0,0,1-1V1a1,1,0,0,0-1-1H1A1,1,0,0,0,0,1V15A1,1,0,0,0,1,16ZM8,4a1,1,0,1,1-.71.29A1,1,0,0,1,8,4ZM6.33,7.56A2.54,2.54,0,0,1,7.91,7a2.39,2.39,0,0,1,.48,0,1.32,1.32,0,0,1,1,.71,1.82,1.82,0,0,1-.12,1.61l-.5,1c-.27.53-.11.64,0,.7a.36.36,0,0,0,.2,0A1.94,1.94,0,0,0,9.42,11a.25.25,0,0,1,.25.42A2.55,2.55,0,0,1,8.09,12a2.44,2.44,0,0,1-.48,0,1.32,1.32,0,0,1-1-.71,1.82,1.82,0,0,1,.12-1.61l.5-1c.27-.53.11-.64,0-.7a.36.36,0,0,0-.2,0A1.93,1.93,0,0,0,6.58,8a.25.25,0,0,1-.25-.42Z"/>
</svg>
