<svg xmlns="http://www.w3.org/2000/svg" width="16" height="16" viewBox="0 0 16 16">
    <path d="M7,5a1,1,0,1,1,.29.71A1,1,0,0,1,7,5Zm2.42,6a1.94,1.94,0,0,1-.52.09.36.36,0,0,1-.2,0c-.08-.06-.24-.17,0-.7l.5-1a1.82,1.82,0,0,0,.12-1.61,1.32,1.32,0,0,0-1-.71,2.39,2.39,0,0,0-.48,0,2.54,2.54,0,0,0-1.57.56A.25.25,0,0,0,6.58,8a1.93,1.93,0,0,1,.52-.09.36.36,0,0,1,.2,0c.08.06.24.17,0,.7l-.5,1a1.82,1.82,0,0,0-.12,1.61,1.32,1.32,0,0,0,1,.71,2.44,2.44,0,0,0,.48,0,2.55,2.55,0,0,0,1.57-.56A.25.25,0,0,0,9.42,11ZM0,15V1A1,1,0,0,1,1,0H15a1,1,0,0,1,1,1V15a1,1,0,0,1-1,1H1A1,1,0,0,1,0,15Zm1,0H15V1H1Z"/>
</svg>
