<svg xmlns="http://www.w3.org/2000/svg" width="16" height="16" viewBox="0 0 16 16">
    <path d="M11.15,9.84,9.48,11.51,7.91,13.09l-.31.31A3.5,3.5,0,0,1,6,14.31a3.54,3.54,0,0,1-1.79,0A2.14,2.14,0,0,1,2.14,16a2,2,0,0,1-1.51-.63,2.15,2.15,0,0,1-.16-2.85,2.07,2.07,0,0,1,1.18-.75,3.52,3.52,0,0,1,0-1.8,3.45,3.45,0,0,1,.92-1.58l.13-.12L4.27,9.84,4.16,10a1.26,1.26,0,0,0-.39.93,1.3,1.3,0,0,0,.39.94,1.31,1.31,0,0,0,1.85,0l.31-.31L7.9,9.93,9.57,8.26ZM7.59,2.74l.13.13L6.14,4.45,6,4.32a1.31,1.31,0,0,0-1.85,0,1.32,1.32,0,0,0,0,1.86l.3.3L6,8.07,7.71,9.74,6.14,11.32,4.46,9.66,2.89,8.07l-.31-.31A3.39,3.39,0,0,1,1.64,6.1a3.48,3.48,0,0,1,.05-1.87,2,2,0,0,1-1.2-.74A2.08,2.08,0,0,1,0,2.15,2.08,2.08,0,0,1,.65.63,2,2,0,0,1,2.16,0,2.08,2.08,0,0,1,3.55.51a2.07,2.07,0,0,1,.72,1.28,3.55,3.55,0,0,1,3.32.95ZM16,13.85a2.08,2.08,0,0,1-.62,1.52,2,2,0,0,1-1.51.63,2.15,2.15,0,0,1-2.1-1.72,3.41,3.41,0,0,1-1.87.06,3.45,3.45,0,0,1-1.68-.94l-.11-.12L9.67,11.7l.13.13A1.31,1.31,0,1,0,11.65,10l-.31-.31L9.75,8.07,8.08,6.41,9.67,4.82l1.67,1.67,1.58,1.58.3.31A3.47,3.47,0,0,1,14.13,10a3.5,3.5,0,0,1,0,1.79,2.1,2.1,0,0,1,1.32.71A2.06,2.06,0,0,1,16,13.85ZM16,2.15a2.06,2.06,0,0,1-.53,1.41,2.11,2.11,0,0,1-1.32.72,3.37,3.37,0,0,1,0,1.84,3.5,3.5,0,0,1-.94,1.65l-.12.13L11.52,6.3l.13-.12a1.31,1.31,0,0,0,0-1.85,1.31,1.31,0,0,0-1.85,0l-.31.31L7.9,6.22,6.23,7.89,4.65,6.3,6.32,4.64,7.91,3.05l.3-.31a3.57,3.57,0,0,1,3.51-.9A2.12,2.12,0,0,1,12.43.53a2.13,2.13,0,0,1,2.92.1A2.08,2.08,0,0,1,16,2.15Z"/>
</svg>
