<svg xmlns="http://www.w3.org/2000/svg" width="24" height="16" viewBox="0 0 24 16">
    <path d="M20.86,7.27c0-.14,0-.27,0-.41A7,7,0,0,0,7.64,3.91a3.23,3.23,0,0,0-2-.66A3.19,3.19,0,0,0,2.46,6.41a3.1,3.1,0,0,0,.15.94,4.63,4.63,0,0,0-2.31,4A4.68,4.68,0,0,0,4.94,16H19.09a4.53,4.53,0,0,0,1.77-8.73ZM6.58,12.49a2.73,2.73,0,0,1-.88-1.54,3.39,3.39,0,0,1-.06-.64,2.74,2.74,0,0,1,.94-2.14A3.45,3.45,0,0,1,9,7.33a4.07,4.07,0,0,1,2.76,1.12,5.94,5.94,0,0,1,.6.63l1.07,1.25A4.24,4.24,0,0,0,14,11a2.57,2.57,0,0,0,1.64.74,1.53,1.53,0,0,0,1.07-.39,1.32,1.32,0,0,0,.42-.85v-.14a1.31,1.31,0,0,0-.06-.41,1.35,1.35,0,0,0-.37-.57,1.49,1.49,0,0,0-1.07-.4A2.25,2.25,0,0,0,14,9.68l-.94-1.11-.11-.13a3.6,3.6,0,0,1,2.76-1.11,3.4,3.4,0,0,1,2.39.84h0A2.77,2.77,0,0,1,19,10.34,3.28,3.28,0,0,1,19,11a2.71,2.71,0,0,1-.87,1.53,3.14,3.14,0,0,1-1.67.79,4.4,4.4,0,0,1-.69.05A4.07,4.07,0,0,1,13,12.24a5.49,5.49,0,0,1-.63-.67l-1.07-1.24a4.1,4.1,0,0,0-.58-.65A2.59,2.59,0,0,0,9,8.95,1.74,1.74,0,0,0,8.57,9,1.4,1.4,0,0,0,8,9.35a1.32,1.32,0,0,0-.4.71,1.36,1.36,0,0,0,0,.28,1.31,1.31,0,0,0,.41,1l0,0a1.54,1.54,0,0,0,1.08.4A2.24,2.24,0,0,0,10.68,11l.94,1.1.1.13A3.65,3.65,0,0,1,9,13.32,3.47,3.47,0,0,1,6.58,12.49Z"/>
</svg>
