<svg xmlns="http://www.w3.org/2000/svg" width="16" height="16" viewBox="0 0 16 16">
    <path d="M15,0H1A1,1,0,0,0,0,1V15a1,1,0,0,0,1,1H15a1,1,0,0,0,1-1V1A1,1,0,0,0,15,0ZM13.71,10.51a1.84,1.84,0,0,1-1.06.71,5.68,5.68,0,0,1-2.9,0,2.94,2.94,0,0,1-2.17-2c-.19-.55-.36-1.11-.53-1.66a4.22,4.22,0,0,0-.51-1.14A1.59,1.59,0,0,0,5,5.73,1.49,1.49,0,0,0,3.66,6.8a3.38,3.38,0,0,0,0,2.41,1.49,1.49,0,0,0,1.09,1,1.92,1.92,0,0,0,1.17-.14,2.35,2.35,0,0,0,.95-.65l.45,1.24a3.08,3.08,0,0,1-1.17.6,4.2,4.2,0,0,1-1.9.08A2.5,2.5,0,0,1,2.19,9.53,4.47,4.47,0,0,1,2,8.26a5.17,5.17,0,0,1,.19-1.63A2.61,2.61,0,0,1,4.13,4.7a4.22,4.22,0,0,1,2.56.14A2.45,2.45,0,0,1,8.06,6.2c.23.51.39,1,.58,1.57s.29.92.5,1.35a2,2,0,0,0,1.77,1.14,3.16,3.16,0,0,0,1.18-.11.61.61,0,0,0,.49-.49.68.68,0,0,0-.34-.75,2.94,2.94,0,0,0-.62-.24,9.84,9.84,0,0,1-1.51-.43,1.59,1.59,0,0,1-1-1.4,2.14,2.14,0,0,1,.25-1.28,2.05,2.05,0,0,1,1.14-.83,4.33,4.33,0,0,1,2.24,0,1.61,1.61,0,0,1,1.14,1.33l0,.29-1.39.18a1,1,0,0,1,0-.11.77.77,0,0,0-.68-.72,1.43,1.43,0,0,0-1.06.14.74.74,0,0,0,.06,1.22,6.38,6.38,0,0,0,.9.27,4.92,4.92,0,0,1,1.32.43A1.74,1.74,0,0,1,14,9.34,1.86,1.86,0,0,1,13.71,10.51Z"/>
</svg>
