<svg xmlns="http://www.w3.org/2000/svg" width="16" height="16" viewBox="0 0 16 16">
    <path d="M15,9.56a2,2,0,0,1-1.57,2.2,6.63,6.63,0,0,1-3.38,0A3.43,3.43,0,0,1,7.52,9.42c-.22-.64-.42-1.3-.62-1.94A4.93,4.93,0,0,0,6.3,6.14a1.86,1.86,0,0,0-1.79-.79A1.74,1.74,0,0,0,2.94,6.6a4,4,0,0,0,0,2.81A1.74,1.74,0,0,0,4.2,10.58a2.24,2.24,0,0,0,1.36-.16,2.74,2.74,0,0,0,1.11-.76l.52,1.44a3.59,3.59,0,0,1-1.36.7,4.9,4.9,0,0,1-2.21.09A2.91,2.91,0,0,1,1.22,9.78,5.22,5.22,0,0,1,1,8.3a6,6,0,0,1,.22-1.9A3,3,0,0,1,3.48,4.16a4.93,4.93,0,0,1,3,.17A2.86,2.86,0,0,1,8.07,5.9c.26.59.45,1.22.68,1.83s.34,1.08.58,1.58a2.29,2.29,0,0,0,2.06,1.32,3.69,3.69,0,0,0,1.38-.13.71.71,0,0,0,.57-.57.8.8,0,0,0-.4-.87,3.43,3.43,0,0,0-.73-.28,11.49,11.49,0,0,1-1.76-.51A1.85,1.85,0,0,1,9.32,6.63a2.49,2.49,0,0,1,.29-1.49,2.39,2.39,0,0,1,1.33-1,5.05,5.05,0,0,1,2.61,0,1.88,1.88,0,0,1,1.33,1.56l.06.34-1.62.21a1.12,1.12,0,0,1,0-.13.9.9,0,0,0-.79-.84,1.67,1.67,0,0,0-1.23.17.87.87,0,0,0,.07,1.42,7.44,7.44,0,0,0,1,.31,5.74,5.74,0,0,1,1.54.5A2,2,0,0,1,15,9.56Z"/>
</svg>
