<svg xmlns="http://www.w3.org/2000/svg" width="16" height="16" viewBox="0 0 16 16">
    <path d="M2.5,7H.5a.5.5,0,0,0-.5.5v7a.5.5,0,0,0,.5.5h2a.5.5,0,0,0,.5-.5v-7A.5.5,0,0,0,2.5,7ZM2,14H1V13H2Zm0-2H1V8H2ZM13.5,6H10.19C9.49,6,8.76,5.31,9,4.66L10.5,2c.28-.71-1-1.55-1.72-1.89A1,1,0,0,0,8.31,0,.92.92,0,0,0,7.5.45C6.84,1.61,6.1,2.81,5.23,4.07A7.4,7.4,0,0,0,4,8.32V14a2,2,0,0,0,2,2h6.3a2,2,0,0,0,2-1.61l1.2-6A2,2,0,0,0,13.5,6Zm-.22,8.2a1,1,0,0,1-1,.8H6a1,1,0,0,1-1-1V8.32A6.47,6.47,0,0,1,6,4.64C6.83,3.52,7.56,2.36,8.33,1a4.27,4.27,0,0,1,1.14.79L8.13,4.17l0,.07,0,.08A1.83,1.83,0,0,0,8.31,6a2.36,2.36,0,0,0,1.88,1H13.5a1,1,0,0,1,1,1.2Z"/>
</svg>
