<svg xmlns="http://www.w3.org/2000/svg" width="16" height="16" viewBox="0 0 16 16">
    <path d="M6,15.5c-0.8,0-1.5-0.7-1.5-1.5V8.3c0-1.4,0.3-2.8,1.1-4C6.4,3.2,7.2,2,7.9,0.7C8,0.5,8.2,0.5,8.3,0.5c0.1,0,0.2,0,0.2,0.1
	C9,0.8,9.2,1.3,9,1.8L8,4.5C7.7,5.3,8.1,6.1,8.9,6.4c0.2,0.1,0.3,0.1,0.5,0.1h4.1c0.8,0,1.5,0.6,1.5,1.5c0,0.1,0,0.2,0,0.3l-1.2,6
	c-0.1,0.7-0.8,1.2-1.5,1.2H6z M0.5,7.5h2v5h-2V7.5z M8.3,1c0.2,0.1,0.3,0.4,0.2,0.6l-1,2.7c-0.4,1,0.2,2.2,1.2,2.6C9,7,9.2,7,9.4,7
	h4.1c0.6,0,1,0.4,1,1c0,0.1,0,0.1,0,0.2l-1.2,6c-0.1,0.5-0.5,0.8-1,0.8H6c-0.6,0-1-0.4-1-1V8.3C5,7,5.3,5.7,6,4.6
	C6.8,3.5,7.6,2.4,8.3,1 M2,8v4H1V8H2 M8.3,0C8,0,7.7,0.2,7.5,0.4C6.8,1.6,6.1,2.8,5.2,4.1C4.4,5.3,4,6.8,4,8.3V14c0,1.1,0.9,2,2,2
	h6.3c1,0,1.8-0.7,2-1.6l1.2-6C15.7,7.3,15,6.3,13.9,6c-0.1,0-0.3,0-0.4,0H9.4c-0.6,0-1-0.4-1-1c0-0.1,0-0.2,0.1-0.3l1-2.7
	c0.3-0.7,0-1.5-0.7-1.9C8.6,0,8.5,0,8.3,0z M2.5,7h-2C0.2,7,0,7.2,0,7.5v7C0,14.8,0.2,15,0.5,15h2C2.8,15,3,14.8,3,14.5v-7
	C3,7.2,2.8,7,2.5,7z M1,14v-1h1v1H1z"/>
</svg>
