<svg xmlns="http://www.w3.org/2000/svg" width="16" height="16" viewBox="0 0 16 16">
    <path d="M10.83,5.88,8.35,8.35,5.88,10.83a.5.5,0,0,1-.71-.71L7.65,7.65l2.47-2.47a.5.5,0,1,1,.71.71Zm1.06,1.77.71-.71.71-.71A2.5,2.5,0,1,0,9.77,2.7l-.71.71-.71.71a2.49,2.49,0,0,0-.61,1,2.53,2.53,0,0,0-.1,1.13L9.06,4.82,10.47,3.4A1.5,1.5,0,0,1,12.6,5.53L11.18,6.94,9.77,8.35a2.53,2.53,0,0,0,1.13-.1A2.49,2.49,0,0,0,11.89,7.65Zm-5.66,0a2.53,2.53,0,0,0-1.13.1,2.49,2.49,0,0,0-1,.61l-.71.71-.71.71A2.5,2.5,0,1,0,6.23,13.3l.71-.71.71-.71a2.49,2.49,0,0,0,.61-1,2.53,2.53,0,0,0,.1-1.13L6.94,11.18,5.53,12.6A1.5,1.5,0,0,1,3.4,10.47L4.82,9.06Z"/>
</svg>
