<svg xmlns="http://www.w3.org/2000/svg" width="16" height="16" viewBox="0 0 16 16">
    <path d="M13.72,12.69a.83.83,0,0,1,.28.67,1.15,1.15,0,0,1-.17.59.88.88,0,0,1-.51.4,2.11,2.11,0,0,0-.76.43q-.31.28-.56.55a4.12,4.12,0,0,1-.53.47,1.12,1.12,0,0,1-.69.2,1.19,1.19,0,0,1-.67-.21,1.1,1.1,0,0,1-.44-.56A6.31,6.31,0,0,0,8.19,15a5.87,5.87,0,0,0-1.48.15,1.26,1.26,0,0,1-.45.5,1.23,1.23,0,0,1-.69.19,1.39,1.39,0,0,1-.49-.1l-.58-.22a6.48,6.48,0,0,0-.66-.21,2.14,2.14,0,0,0-.71-.06,1,1,0,0,1-.83-.22A.87.87,0,0,1,2,14.42a1.08,1.08,0,0,1,.13-.49.7.7,0,0,0,.07-.46q0-.25-.06-.5a1,1,0,0,1,.08-.48.92.92,0,0,1,.51-.41,2.3,2.3,0,0,0,.48-.28,2,2,0,0,0,.3-.29,3.09,3.09,0,0,1-.14-.89,4.44,4.44,0,0,1,.13-1.13A6.22,6.22,0,0,1,4,8.19a7.14,7.14,0,0,1,.9-1.37,4.75,4.75,0,0,0,.66-1,2.87,2.87,0,0,0,.22-.9,6.27,6.27,0,0,0,0-1,13.57,13.57,0,0,1,0-1.37,3.72,3.72,0,0,1,.13-.76A2.39,2.39,0,0,1,6.22.91,2.29,2.29,0,0,1,7,.26,2.39,2.39,0,0,1,8.15,0,2.23,2.23,0,0,1,9.27.26,2.12,2.12,0,0,1,10,.93a2.78,2.78,0,0,1,.4.94,4.88,4.88,0,0,1,.12,1.07q0,.33,0,.69a3.91,3.91,0,0,0,0,.74,2.73,2.73,0,0,0,.19.77,2.4,2.4,0,0,0,.55.78A8.51,8.51,0,0,1,12.08,7a6.78,6.78,0,0,1,.68,1.3,6.25,6.25,0,0,1,.38,1.49,5.44,5.44,0,0,1,0,1.62.73.73,0,0,1,.2.3,3.11,3.11,0,0,1,.1.35,2.75,2.75,0,0,0,.1.35A.63.63,0,0,0,13.72,12.69Zm-6.1-7a.82.82,0,0,0,.49-.15l.51-.34.24-.12L9.12,5a1,1,0,0,0,.2-.15.24.24,0,0,0,.08-.17q0-.17-.22-.26L8.6,4.14,8.3,4l-.22-.12-.19-.08a.66.66,0,0,0-.22,0,.58.58,0,0,0-.42.15,2.69,2.69,0,0,1-.42.31,4.17,4.17,0,0,1-.42.23.24.24,0,0,0-.17.22A.42.42,0,0,0,6.47,5L7,5.35l.35.26A.51.51,0,0,0,7.63,5.72ZM8.74,2.25a.66.66,0,0,0-.37,0,.8.8,0,0,0-.3.23,1.37,1.37,0,0,0-.21.36,1.38,1.38,0,0,0-.1.43,1,1,0,0,1,.35.08A1,1,0,0,1,8.26,3a.34.34,0,0,1,.32-.19.3.3,0,0,1,.23.12.61.61,0,0,1,.1.26,1.22,1.22,0,0,1,0,.32,1.5,1.5,0,0,1-.06.31l.12,0,.12,0a1.4,1.4,0,0,0,.14-.45,1.64,1.64,0,0,0,0-.52,1.11,1.11,0,0,0-.17-.44A.47.47,0,0,0,8.74,2.25Zm-2.28.22a.37.37,0,0,0-.25.22,1.09,1.09,0,0,0-.1.41,1.87,1.87,0,0,0,0,.48A1.28,1.28,0,0,0,6.31,4l.1-.06.1-.06a.41.41,0,0,1-.09-.18.86.86,0,0,1,0-.27.92.92,0,0,1,0-.26A.21.21,0,0,1,6.6,3a.17.17,0,0,1,.16,0,.45.45,0,0,1,.11.13.6.6,0,0,1,.07.19l0,.19a.69.69,0,0,1,.21-.12,1.65,1.65,0,0,0,0-.4A1.09,1.09,0,0,0,7,2.69a.53.53,0,0,0-.23-.2A.46.46,0,0,0,6.46,2.47ZM5.06,15.29a1,1,0,0,0,.55.1A.94.94,0,0,0,6,15.23a.73.73,0,0,0,.28-.77A1.56,1.56,0,0,0,6.13,14a3.73,3.73,0,0,0-.26-.35l-.28-.34A1.73,1.73,0,0,1,5.35,13q-.15-.33-.33-.65a3,3,0,0,0-.35-.53.71.71,0,0,0-.37-.25q-.19,0-.38.19a4.91,4.91,0,0,1-.35.38,2,2,0,0,1-.62.38q-.29.12-.33.26a1.3,1.3,0,0,0,0,.44q0,.19,0,.42a.87.87,0,0,1-.11.47.51.51,0,0,0,0,.51.54.54,0,0,0,.53.24h.24a1.55,1.55,0,0,1,.37,0,4.72,4.72,0,0,1,.57.13A6.08,6.08,0,0,1,5.06,15.29ZM9.71,14q.07-.24.16-.47a3,3,0,0,0,.15-.51,4.18,4.18,0,0,0,.06-.67q0-.36,0-.69a1.64,1.64,0,0,1,.15-.56.51.51,0,0,1,.41-.28.65.65,0,0,1,.19-.42.58.58,0,0,1,.35-.14,1,1,0,0,1,.43.07,1.9,1.9,0,0,1,.43.22,1.52,1.52,0,0,1,.33.31.74.74,0,0,1,.16.32h.17a1.15,1.15,0,0,0-.29-.7,1.55,1.55,0,0,0-.57-.42q0-.33,0-.63a4.41,4.41,0,0,0-.08-.6,3.29,3.29,0,0,0-.19-.6,3.89,3.89,0,0,0-.33-.62,8.74,8.74,0,0,1,.17.92,5.25,5.25,0,0,1,.06.77,1.45,1.45,0,0,1-.12.65,3,3,0,0,0-.28-1q-.25-.57-.56-1.2t-.6-1.29a6,6,0,0,1-.42-1.28,2.09,2.09,0,0,1-.33.19l-.3.15L8.28,6a1.12,1.12,0,0,1-.67.19A.8.8,0,0,1,7.13,6l-.43-.32L6.28,5.4q0,.21,0,.47t-.06.54A3,3,0,0,1,6.07,7a2.34,2.34,0,0,1-.26.53,6.21,6.21,0,0,0-.53.94A5.21,5.21,0,0,0,5,9.28a5.49,5.49,0,0,0-.13.72q0,.33,0,.58a1.47,1.47,0,0,1-.16-.39,3.13,3.13,0,0,1-.1-.62,4.68,4.68,0,0,1,0-.8,3.83,3.83,0,0,1,.21-.91,4,4,0,0,0-.47,1,2.79,2.79,0,0,0-.12.9,2.06,2.06,0,0,0,.17.74,1.22,1.22,0,0,0,.4.51q.53.4,1,.7a2.62,2.62,0,0,1,.74.66.6.6,0,0,1,.1.63.62.62,0,0,1-.42.37,3.17,3.17,0,0,1,.33.38,1.86,1.86,0,0,1,.24.48,2.54,2.54,0,0,0,1.47.24A4.54,4.54,0,0,0,9.71,14Zm3.24,0a.81.81,0,0,0,.54-.47.5.5,0,0,0-.12-.51,1.42,1.42,0,0,1-.26-.36,1.74,1.74,0,0,1-.12-.36,1.6,1.6,0,0,0-.17-.44q-.08-.12-.42-.12a1,1,0,0,1-.34.25,1.24,1.24,0,0,1-.51.14.79.79,0,0,1-.49-.14.83.83,0,0,1-.3-.6.29.29,0,0,0-.15.23,2.76,2.76,0,0,0-.06.44q0,.26,0,.56a4.67,4.67,0,0,1-.06.55,3.43,3.43,0,0,1-.13.47l-.15.4a2.37,2.37,0,0,0-.1.4,1.27,1.27,0,0,0,0,.44.69.69,0,0,0,.17.4.68.68,0,0,0,.35.21.89.89,0,0,0,.45,0,1,1,0,0,0,.47-.32l.58-.59A2.43,2.43,0,0,1,12.94,14ZM7.61,5.35A1,1,0,0,1,7,5.17a5,5,0,0,1-.45-.34.1.1,0,0,1,0-.1.18.18,0,0,1,0-.09.15.15,0,0,1,.08,0,.1.1,0,0,1,.1,0,4.19,4.19,0,0,0,.4.31.81.81,0,0,0,.46.14,1.09,1.09,0,0,0,.6-.19,4.31,4.31,0,0,1,.65-.34.09.09,0,0,1,.1,0A.17.17,0,0,1,9,4.62a.14.14,0,0,1,0,.1.11.11,0,0,1-.08.07,3.59,3.59,0,0,0-.66.35A1.19,1.19,0,0,1,7.61,5.35Z"/>
</svg>
