<svg xmlns="http://www.w3.org/2000/svg" width="16" height="16" viewBox="0 0 16 16">
    <path d="M14,8v.5a4.46,4.46,0,0,1-1.13,3l-.71-.71A3.47,3.47,0,0,0,13,8.5V8ZM1.5,1.5l-.71.71L4.59,6H4V7H5.59l1,1H4c0,2,1,3,4,3a9.22,9.22,0,0,0,1.48-.11l1,1A3.45,3.45,0,0,1,9.5,12h-3A3.5,3.5,0,0,1,3,8.5V8H2v.5A4.5,4.5,0,0,0,6.5,13H7v2H5v1h6V15H9V13h.5a4.37,4.37,0,0,0,1.72-.37l1.57,1.57.71-.71ZM7,3V4H5.41l1,1H7v.59l2,2V7h3V6H9V5h3V4H9V3h3c0-2-1-3-4-3C5.21,0,4.16.88,4,2.61L4.41,3Zm5,5H9.41l2,2A2.89,2.89,0,0,0,12,8Z"/>
</svg>
