<svg xmlns="http://www.w3.org/2000/svg" width="16" height="16" viewBox="0 0 16 16">
    <path d="M7.87,4a1.94,1.94,0,0,0,.58-1.43,1.92,1.92,0,0,0-.58-1.4A1.94,1.94,0,0,0,6.44.59,1.92,1.92,0,0,0,5,1.17a1.92,1.92,0,0,0-.58,1.4A1.94,1.94,0,0,0,5,4a1.92,1.92,0,0,0,1.4.58A1.94,1.94,0,0,0,7.87,4Zm1.78.43a2.67,2.67,0,0,0,.82.56,2.62,2.62,0,0,0,2,0,2.66,2.66,0,0,0,1.38-1.38,2.5,2.5,0,0,0,.21-1,2.49,2.49,0,0,0-.21-1A2.66,2.66,0,0,0,12.5.2a2.62,2.62,0,0,0-2,0,2.65,2.65,0,0,0-.82.56,2.72,2.72,0,0,0-.56.82,2.5,2.5,0,0,0-.21,1,2.51,2.51,0,0,0,.21,1A2.71,2.71,0,0,0,9.65,4.44Zm-7-.31A1.44,1.44,0,0,0,3.7,3.69,1.5,1.5,0,0,0,4.13,2.6,1.47,1.47,0,0,0,3.7,1.54,1.44,1.44,0,0,0,2.62,1.1a1.47,1.47,0,0,0-1.08.45A1.44,1.44,0,0,0,1.1,2.6a1.48,1.48,0,0,0,.45,1.09A1.47,1.47,0,0,0,2.62,4.13ZM14,7.26a3.55,3.55,0,0,0-2.51-1,3.43,3.43,0,0,0-1.37.27A3.76,3.76,0,0,0,9,7.24a2.65,2.65,0,0,0-.93-1.4,2.53,2.53,0,0,0-1.63-.56,2.57,2.57,0,0,0-1.12.25,2.76,2.76,0,0,0-.91.71,1.93,1.93,0,0,0-.64-1,1.72,1.72,0,0,0-1.14-.4,1.79,1.79,0,0,0-1.31.54A1.66,1.66,0,0,0,1,6.69v3.2H3.6v2.62H8V16h7V9.77a3.37,3.37,0,0,0-.27-1.38A3.65,3.65,0,0,0,14,7.26Z"/>
</svg>
