<svg xmlns="http://www.w3.org/2000/svg" width="16" height="16" viewBox="0 0 16 16">
    <path d="M15,0H1A1,1,0,0,0,0,1V15a1,1,0,0,0,1,1H15a1,1,0,0,0,1-1V1A1,1,0,0,0,15,0ZM8.82,3.19a2,2,0,0,1,.42-.62,2,2,0,0,1,.62-.42,2,2,0,0,1,1.52,0,2,2,0,0,1,1,1,2,2,0,0,1,0,1.52,2,2,0,0,1-.42.62,2,2,0,0,1-.62.42,2,2,0,0,1-1.52,0,2,2,0,0,1-.62-.42,2,2,0,0,1-.42-.62,2,2,0,0,1,0-1.52Zm-3-.31a1.44,1.44,0,0,1,1.05-.44,1.46,1.46,0,0,1,1.07.44,1.44,1.44,0,0,1,.44,1.05A1.49,1.49,0,0,1,6.83,5.44,1.44,1.44,0,0,1,5.78,5a1.46,1.46,0,0,1-.44-1.07A1.44,1.44,0,0,1,5.78,2.88Zm-2.62.27A1.1,1.1,0,0,1,4,2.82a1.08,1.08,0,0,1,.81.33A1.1,1.1,0,0,1,5.1,4a1.12,1.12,0,0,1-.32.81A1.08,1.08,0,0,1,4,5.1,1.14,1.14,0,0,1,2.82,4,1.08,1.08,0,0,1,3.16,3.16ZM13.27,14H8V11.38H4.7v-2h-2V7A1.24,1.24,0,0,1,3,6a1.34,1.34,0,0,1,1-.4,1.29,1.29,0,0,1,.86.3,1.45,1.45,0,0,1,.48.74A2.07,2.07,0,0,1,6,6.14,1.93,1.93,0,0,1,6.83,6a1.9,1.9,0,0,1,1.23.42,2,2,0,0,1,.69,1.05,2.82,2.82,0,0,1,.84-.55,2.57,2.57,0,0,1,1-.21,2.66,2.66,0,0,1,1.88.77,2.74,2.74,0,0,1,.57.85,2.53,2.53,0,0,1,.2,1Z"/>
</svg>
