<svg xmlns="http://www.w3.org/2000/svg" width="16" height="16" viewBox="0 0 16 16">
    <path d="M13.33,2a5.66,5.66,0,0,0-3.21-1,5.51,5.51,0,0,0-2.62.65A6.82,6.82,0,0,0,5.37,3.49,6.59,6.59,0,0,0,4.3,5.44a7.69,7.69,0,0,0-.43,2.38v.38a7.69,7.69,0,0,0,.43,2.38,6.59,6.59,0,0,0,1.07,1.95,6.82,6.82,0,0,0,2.14,1.79,5.51,5.51,0,0,0,2.62.65,5.66,5.66,0,0,0,3.21-1,8,8,0,0,1-2.45,1.5A7.84,7.84,0,0,1,8,16H7.62a7.78,7.78,0,0,1-3-.73A7.86,7.86,0,0,1,.6,11a7.94,7.94,0,0,1,0-6.13A7.86,7.86,0,0,1,4.89.63,7.82,7.82,0,0,1,8,0H8a8,8,0,0,1,5.3,2ZM16,8a7.77,7.77,0,0,1-.69,3.24,8.14,8.14,0,0,1-1.9,2.65,3.76,3.76,0,0,1-2,.56,3.85,3.85,0,0,1-2.28-.75,4.33,4.33,0,0,0,2.26-2.08A7.25,7.25,0,0,0,12.3,8a7.26,7.26,0,0,0-.88-3.61A4.35,4.35,0,0,0,9.16,2.3a3.89,3.89,0,0,1,2.27-.74,3.83,3.83,0,0,1,2,.58,8,8,0,0,1,1.88,2.63A7.85,7.85,0,0,1,16,8Z"/>
</svg>
