<svg xmlns="http://www.w3.org/2000/svg" width="16" height="16" viewBox="0 0 16 16">
    <path d="M6.4.16A8,8,0,0,0,8,16a1.5,1.5,0,0,0,0-3,1.5,1.5,0,0,1-1.48-1.77A1.44,1.44,0,0,1,8.6,10.3l1.87.94A3.79,3.79,0,0,0,16,8.47,4,4,0,0,0,16,8,8,8,0,0,0,6.4.16ZM3,11.75A1.25,1.25,0,1,1,4.25,10.5,1.25,1.25,0,0,1,3,11.75Zm0-4A1.25,1.25,0,1,1,4.25,6.5,1.25,1.25,0,0,1,3,7.75Zm3.5-3A1.75,1.75,0,1,1,8.25,3,1.75,1.75,0,0,1,6.5,4.75ZM9.25,4A1.75,1.75,0,1,1,11,5.75,1.75,1.75,0,0,1,9.25,4Zm6,4A1.75,1.75,0,1,1,13.5,6.25,1.75,1.75,0,0,1,15.25,8Z"/>
</svg>
