<svg xmlns="http://www.w3.org/2000/svg" width="16" height="16" viewBox="0 0 16 16">
    <path d="M10.52,15a2.46,2.46,0,0,1-1.67-.7L2,7.43a3.25,3.25,0,0,1,.16-4.79,3.25,3.25,0,0,1,4.79-.16l5.39,5.39a.5.5,0,0,1-.71.71L6.23,3.19a2.27,2.27,0,0,0-3.37.16,2.27,2.27,0,0,0-.16,3.38l6.86,6.86a1.34,1.34,0,0,0,2-.11,1.34,1.34,0,0,0,.1-2L5.79,5.59a.42.42,0,0,0-.65.05.42.42,0,0,0,0,.66l4.4,4.4a.5.5,0,0,1-.71.71L4.38,7A1.57,1.57,0,0,1,4,6.37a1.41,1.41,0,0,1,.42-1.44A1.42,1.42,0,0,1,6.5,4.88l5.88,5.88a2.33,2.33,0,0,1-.11,3.43A2.45,2.45,0,0,1,10.52,15Z"/>
</svg>
