<svg xmlns="http://www.w3.org/2000/svg" width="16" height="16" viewBox="0 0 16 16">
    <path d="M6,11.25V12H2v1H6v.75a.25.25,0,0,0,.25.25h2.5A.25.25,0,0,0,9,13.75V13h5V12H9v-.75A.25.25,0,0,0,8.75,11H6.25A.25.25,0,0,0,6,11.25ZM8,12v1H7V12ZM9,7.25V8H2V9H9v.75a.25.25,0,0,0,.25.25h2.5A.25.25,0,0,0,12,9.75V9h2V8H12V7.25A.25.25,0,0,0,11.75,7H9.25A.25.25,0,0,0,9,7.25ZM11,8V9H10V8ZM4,3.25V4H2V5H4v.75A.25.25,0,0,0,4.25,6h2.5A.25.25,0,0,0,7,5.75V5h7V4H7V3.25A.25.25,0,0,0,6.75,3H4.25A.25.25,0,0,0,4,3.25ZM6,4V5H5V4Z"/>
</svg>
