<svg xmlns="http://www.w3.org/2000/svg" width="16" height="16" viewBox="0 0 16 16">
    <path d="M4.75,6H4V2H3V6H2.25A.25.25,0,0,0,2,6.25v2.5A.25.25,0,0,0,2.25,9H3v5H4V9h.75A.25.25,0,0,0,5,8.75V6.25A.25.25,0,0,0,4.75,6ZM4,8H3V7H4ZM8.75,9H8V2H7V9H6.25A.25.25,0,0,0,6,9.25v2.5a.25.25,0,0,0,.25.25H7v2H8V12h.75A.25.25,0,0,0,9,11.75V9.25A.25.25,0,0,0,8.75,9ZM8,11H7V10H8Zm4.75-7H12V2H11V4h-.75a.25.25,0,0,0-.25.25v2.5a.25.25,0,0,0,.25.25H11v7h1V7h.75A.25.25,0,0,0,13,6.75V4.25A.25.25,0,0,0,12.75,4ZM12,6H11V5h1Z"/>
</svg>
