<svg xmlns="http://www.w3.org/2000/svg" width="16" height="16" viewBox="0 0 16 16">
    <path d="M7.25,4a1.57,1.57,0,0,1-.9,2c-.69.14-1.41-.51-1.6-1.46a1.57,1.57,0,0,1,.9-2C6.34,2.39,7.06,3,7.25,4ZM2.68,6.27a1.47,1.47,0,0,0-.9,1.84A1.47,1.47,0,0,0,3.32,9.46a1.47,1.47,0,0,0,.9-1.84A1.47,1.47,0,0,0,2.68,6.27Zm7.67-3.75C9.66,2.39,8.94,3,8.75,4a1.57,1.57,0,0,0,.9,2c.69.14,1.41-.51,1.6-1.46A1.57,1.57,0,0,0,10.35,2.53Zm3,3.75a1.47,1.47,0,0,0-1.55,1.34,1.47,1.47,0,0,0,.9,1.84,1.47,1.47,0,0,0,1.55-1.34A1.47,1.47,0,0,0,13.32,6.27Zm-3.32,4C9.53,9.66,9.5,8,8,8S6.4,9.61,6,10.25,4,11.16,4,12a1.5,1.5,0,0,0,1.5,1.5l.93-.19a8,8,0,0,1,3.14,0l.93.19A1.5,1.5,0,0,0,12,12C12,11.16,10.41,10.77,10,10.25Z"/>
</svg>
