<svg xmlns="http://www.w3.org/2000/svg" width="16" height="16" viewBox="0 0 16 16">
    <path d="M13,12.49A11.66,11.66,0,0,1,12.75,14c-.25.75-1.75,1-2.75,1-1.93,0-4.09-1.4-5.81-3.19S1,7.93,1,6c0-1,.25-2.5,1-2.75A11.66,11.66,0,0,1,3.51,3,.46.46,0,0,1,4,3.3L4.93,6c.16.49,0,.71-.25.85-.53.29-1.5.25-.93,1.4a8.66,8.66,0,0,0,1.79,2.21,8.66,8.66,0,0,0,2.21,1.79c1.15.57,1.11-.4,1.4-.93.14-.26.36-.41.85-.25l2.7.93A.46.46,0,0,1,13,12.49ZM8,1V3a5,5,0,0,1,5,5h2A7,7,0,0,0,8,1Zm2,7h2A4,4,0,0,0,8,4V6a2,2,0,0,1,2,2Z"/>
</svg>
