<svg xmlns="http://www.w3.org/2000/svg" width="16" height="16" viewBox="0 0 16 16">
    <path d="M5.65,15.65a9.15,9.15,0,0,0,1-2.16l.5-1.89A2.13,2.13,0,0,0,9,12.51c2.4,0,4.13-2.21,4.13-5A4.67,4.67,0,0,0,8.23,3C4.79,3,3,5.27,3,7.78a3.57,3.57,0,0,0,1.62,3.09c.15.07.23,0,.27-.11l.22-.9A.24.24,0,0,0,5,9.63a3.1,3.1,0,0,1-.59-1.82A3.45,3.45,0,0,1,8,4.35a3.14,3.14,0,0,1,3.33,3.24c0,2.15-1.09,3.65-2.5,3.65A1.16,1.16,0,0,1,7.66,9.8a16,16,0,0,0,.66-2.65A1,1,0,0,0,7.31,6C6.52,6,5.87,6.85,5.87,8a2.88,2.88,0,0,0,.24,1.18l-.93,4a7.88,7.88,0,0,0,0,2.38,8,8,0,1,1,.49.17Z"/>
</svg>
