<svg xmlns="http://www.w3.org/2000/svg" width="16" height="16" viewBox="0 0 16 16">
    <path d="M12.85,4.58,10.48,7,8.26,9.18,8.2,9.1C6.94,10.22,5.56,11.38,4.85,12l.56,2.81a.13.13,0,0,1,0,.11l-.54.54a.13.13,0,0,1-.2,0L3.3,12.72.63,11.38a.12.12,0,0,1,0-.2l.54-.54a.13.13,0,0,1,.11,0l2.81.56c.59-.71,1.74-2.09,2.87-3.36l-.08-.05L9.06,5.54l2.38-2.38C14.27.34,15,1,15,1S15.68,1.75,12.85,4.58ZM8.81,10l2.61,4a.25.25,0,0,0,.39,0l.39-.39a.25.25,0,0,0,.06-.24L10.78,8.07ZM2.29,3.83l-.39.39a.25.25,0,0,0,0,.39L6,7.21l2-2L2.54,3.76A.25.25,0,0,0,2.29,3.83Z"/>
</svg>
