<svg xmlns="http://www.w3.org/2000/svg" width="16" height="16" viewBox="0 0 16 16">
    <path d="M1,13H3v1H1Zm0-3H3V9H1ZM1,8H3V7H1ZM15,1H4V2H15Zm0,2H4V4H15ZM1,12H3V11H1ZM1,6H3V5H1Zm15,5a5,5,0,0,1-1,3v0h0a5,5,0,0,1-8,0H4V13H6.42a4.43,4.43,0,0,0,.32.59,5.06,5.06,0,0,1-.66-1.73s0,.09,0,.14H4V11H6a5,5,0,0,1,.1-1H4V9H6.42A5,5,0,0,1,7,8H4V7H8A4.92,4.92,0,0,1,14,7h1V8h0A5,5,0,0,1,16,11ZM14,8.75,9,7.25V11.5H8.25a1,1,0,0,0,0,2H9a1,1,0,0,0,1-1V9l3,1v2h-.75a1,1,0,0,0,0,2H13a1,1,0,0,0,1-1ZM15,5H4V6H15ZM1,4H3V3H1ZM1,2H3V1H1Z"/>
</svg>
