<svg xmlns="http://www.w3.org/2000/svg" width="16" height="16" viewBox="0 0 16 16">
    <path d="M11.12,11.18a.17.17,0,0,0-.2.11,1.79,1.79,0,0,1-.6.88,2.64,2.64,0,0,1-1.46.32,5.58,5.58,0,0,1-2.47-.68,7.62,7.62,0,0,0,.67-3.39L7,8H9V7H6.86c-.49-2.17-.49-3.73.47-4.28a1.31,1.31,0,0,1,1.85.74.76.76,0,0,0,.13.25.7.7,0,0,0,1.22-.63C10.36,2.55,9.5,2,8.22,2a2.94,2.94,0,0,0-1.9.87A3.34,3.34,0,0,0,5.45,4.4a5.83,5.83,0,0,0,0,2.6H4V8H5.62l.06.43a11.13,11.13,0,0,1-.1,3.22,1.54,1.54,0,0,0-2.3,1.28A1.06,1.06,0,0,0,4.36,14,1.91,1.91,0,0,0,6,12.64a11.69,11.69,0,0,0,1.73,1.15,2.55,2.55,0,0,0,1,.21,2.16,2.16,0,0,0,1.56-.71,3.39,3.39,0,0,0,.86-1.92A.17.17,0,0,0,11.12,11.18ZM5.06,13.24a.79.79,0,0,1-.55.26c-.79,0-.79-2.3,1-1.18A1.94,1.94,0,0,1,5.06,13.24Z"/>
</svg>
