<svg xmlns="http://www.w3.org/2000/svg" width="16" height="16" viewBox="0 0 16 16">
    <path d="M12.75,5.75a4.09,4.09,0,0,0-2.67.86,2.5,2.5,0,0,0-1.45-1C8.92,4.9,9.16,4,9.72,3.74A2,2,0,0,0,11,2,2.29,2.29,0,0,0,8.5,0C8.33,0,5.75,0,5.75,3.25a4.09,4.09,0,0,0,.86,2.67,2.5,2.5,0,0,0-1,1.45C4.9,7.08,4,6.84,3.74,6.28A2,2,0,0,0,2,5,2.29,2.29,0,0,0,0,7.5c0,.17,0,2.75,3.25,2.75a4.09,4.09,0,0,0,2.67-.86,2.5,2.5,0,0,0,1.45,1c-.29.69-.53,1.56-1.09,1.85A2,2,0,0,0,5,14a2.29,2.29,0,0,0,2.5,2c.17,0,2.75,0,2.75-3.25a4.09,4.09,0,0,0-.86-2.67,2.5,2.5,0,0,0,1-1.45c.69.29,1.56.53,1.85,1.09A2,2,0,0,0,14,11a2.29,2.29,0,0,0,2-2.5C16,8.33,16,5.75,12.75,5.75ZM8,9a1,1,0,1,1,.71-.29A1,1,0,0,1,8,9Z"/>
</svg>
