<svg xmlns="http://www.w3.org/2000/svg" width="16" height="16" viewBox="0 0 16 16">
    <path d="M14,8H13V5a2,2,0,0,0-2-2H8V2.11A2.21,2.21,0,0,0,7.54.75,1.91,1.91,0,0,0,6.34,0,2,2,0,0,0,4,2V3H2A2,2,0,0,0,0,5V7.05L.25,7H.75l.25,0a2.5,2.5,0,0,1,1.43.86,2.49,2.49,0,0,1,0,3.18A2.5,2.5,0,0,1,1,11.95H1L.75,12H.25l-.25,0V14a2,2,0,0,0,2,2H4.05q0-.12,0-.25a2.49,2.49,0,0,1,0-.51q0-.13,0-.25h0a2.5,2.5,0,0,1,4.9,0h0q0,.12,0,.25a2.49,2.49,0,0,1,0,.51q0,.13,0,.25H11a2,2,0,0,0,2-2V12h1a2,2,0,0,0,0-4Zm0,3H12v3a1,1,0,0,1-1,1H9.95a3.51,3.51,0,0,0-1.16-2.14,3.47,3.47,0,0,0-4.59,0A3.51,3.51,0,0,0,3.05,15H2a1,1,0,0,1-1-1V12.95a3.51,3.51,0,0,0,2.14-1.16,3.47,3.47,0,0,0,0-4.59A3.51,3.51,0,0,0,1,6.05V5A1,1,0,0,1,2,4H5V2A1,1,0,1,1,7,2V4h4a1,1,0,0,1,1,1V9h2a1,1,0,1,1,0,2Z"/>
</svg>
