<svg xmlns="http://www.w3.org/2000/svg" width="16" height="16" viewBox="0 0 16 16">
    <path d="M7.44,9.5A2.92,2.92,0,0,1,7,11.7a3,3,0,0,1-1.89,1.24,2.91,2.91,0,0,1-2.22-.46,3.11,3.11,0,0,1-1.27-2A6.58,6.58,0,0,1,3.17,5.05,10.41,10.41,0,0,1,5.38,3l.35.37.35.37A12.45,12.45,0,0,0,5,4.92,5.2,5.2,0,0,0,3.88,7.2a3.1,3.1,0,0,1,2.34.42A2.89,2.89,0,0,1,7.44,9.5Zm7,0a2.89,2.89,0,0,0-1.23-1.87,3.1,3.1,0,0,0-2.34-.42A5.2,5.2,0,0,1,12,4.93a12.45,12.45,0,0,1,1-1.18l-.35-.37L12.38,3a10.41,10.41,0,0,0-2.22,2.06A6.58,6.58,0,0,0,8.61,10.5a3.11,3.11,0,0,0,1.27,2,2.91,2.91,0,0,0,2.22.46A3,3,0,0,0,14,11.71,2.92,2.92,0,0,0,14.44,9.5Z"/>
</svg>
