<svg xmlns="http://www.w3.org/2000/svg" width="16" height="16" viewBox="0 0 16 16">
    <path d="M9.78,10.42a.17.17,0,0,1,0,.28A2.43,2.43,0,0,1,8,11.25a2.43,2.43,0,0,1-1.78-.55.17.17,0,0,1,0-.28.19.19,0,0,1,.27,0A2.08,2.08,0,0,0,8,10.86a2.1,2.1,0,0,0,1.51-.44.19.19,0,0,1,.27,0ZM7,8.8a.79.79,0,0,1-.79.79.78.78,0,0,1-.57-.23.76.76,0,0,1-.24-.56.77.77,0,0,1,.24-.57A.78.78,0,0,1,6.24,8a.76.76,0,0,1,.56.24A.78.78,0,0,1,7,8.8Zm3.53,0a.76.76,0,0,1-.24.56.78.78,0,0,1-.57.23A.79.79,0,0,1,9,8.8a.78.78,0,0,1,.23-.57A.76.76,0,0,1,9.76,8a.78.78,0,0,1,.57.23A.77.77,0,0,1,10.56,8.8ZM12.8,7.73A1,1,0,0,0,12.49,7a1,1,0,0,0-.76-.31A1,1,0,0,0,11,7a5.06,5.06,0,0,0-2.78-.86l.56-2.53,1.79.4a.8.8,0,1,0,1.36-.58.77.77,0,0,0-.57-.24.76.76,0,0,0-.71.45l-2-.44q-.17,0-.22.14L7.8,6.13A5.06,5.06,0,0,0,5,7,1.08,1.08,0,0,0,3.51,7a1,1,0,0,0-.31.75,1,1,0,0,0,.17.57,1.06,1.06,0,0,0,.44.39,2.3,2.3,0,0,0-.05.5A2.63,2.63,0,0,0,5,11.37a5,5,0,0,0,3,.9,5,5,0,0,0,3-.9A2.63,2.63,0,0,0,12.28,9.2a1.89,1.89,0,0,0-.06-.51,1.06,1.06,0,0,0,.43-.39A1,1,0,0,0,12.8,7.73ZM16,8a7.82,7.82,0,0,1-.63,3.11,7.86,7.86,0,0,1-4.26,4.26,7.93,7.93,0,0,1-6.21,0A7.86,7.86,0,0,1,.63,11.11a7.93,7.93,0,0,1,0-6.21A7.86,7.86,0,0,1,4.89.63a7.93,7.93,0,0,1,6.21,0,7.86,7.86,0,0,1,4.26,4.26A7.82,7.82,0,0,1,16,8Z"/>
</svg>
