<svg xmlns="http://www.w3.org/2000/svg" width="16" height="16" viewBox="0 0 16 16">
    <path d="M8.47,8a.59.59,0,0,1-.15.4A.47.47,0,0,1,8,8.54a.59.59,0,0,1-.4-.15A.47.47,0,0,1,7.38,8a.58.58,0,0,1,.15-.4.48.48,0,0,1,.38-.17.58.58,0,0,1,.39.15A.47.47,0,0,1,8.47,8Zm.13.52L11.73,3.3l-.6.56L10,4.9,8.79,6l-1,1a4.69,4.69,0,0,0-.45.46L4.18,12.66l.6-.55,1.13-1L7.12,9.93l1-1Q8.58,8.54,8.61,8.49ZM14.38,8a6.23,6.23,0,0,1-.93,3.31l-.15-.1-.24-.15a.41.41,0,0,0-.15-.07.1.1,0,0,0-.12.12q0,.09.53.39a6.39,6.39,0,0,1-1.65,1.7,6.25,6.25,0,0,1-2.16,1l-.14-.6q0-.09-.13-.09a.08.08,0,0,0-.07,0,.12.12,0,0,0,0,.08l.14.61a6.37,6.37,0,0,1-1.3.13,6.29,6.29,0,0,1-3.32-.94l.12-.18L5,13a.51.51,0,0,0,.08-.17A.1.1,0,0,0,5,12.68s-.09,0-.15.13a2.92,2.92,0,0,0-.2.31l-.12.21a6.41,6.41,0,0,1-1.71-1.67,6.26,6.26,0,0,1-1-2.18l.62-.13a.12.12,0,0,0,.09-.13.08.08,0,0,0,0-.07.14.14,0,0,0-.09,0l-.61.13A6.5,6.5,0,0,1,1.62,8a6.22,6.22,0,0,1,1-3.38l.17.11L3,4.89A.45.45,0,0,0,3.18,5q.12,0,.12-.11s0-.08-.11-.14l-.29-.19-.18-.11A6.5,6.5,0,0,1,4.4,2.73a6.26,6.26,0,0,1,2.18-1l.13.6q0,.09.13.09a.08.08,0,0,0,.07,0,.14.14,0,0,0,0-.09L6.8,1.73A6.66,6.66,0,0,1,8,1.62a6.28,6.28,0,0,1,3.38,1,2.34,2.34,0,0,0-.35.58q0,.12.11.12t.43-.57a6.41,6.41,0,0,1,2.63,3.81l-.5.11q-.09,0-.09.14a.08.08,0,0,0,0,.07.12.12,0,0,0,.08,0l.51-.12A6.54,6.54,0,0,1,14.38,8Zm.76,0a7,7,0,0,0-.57-2.78,7,7,0,0,0-3.8-3.8,7.08,7.08,0,0,0-5.55,0,7,7,0,0,0-3.8,3.8,7.08,7.08,0,0,0,0,5.55,7,7,0,0,0,3.8,3.8,7.08,7.08,0,0,0,5.55,0,7,7,0,0,0,3.8-3.8A7,7,0,0,0,15.14,8ZM16,8a7.82,7.82,0,0,1-.63,3.11,7.86,7.86,0,0,1-4.26,4.26,7.93,7.93,0,0,1-6.21,0A7.86,7.86,0,0,1,.63,11.11a7.93,7.93,0,0,1,0-6.21A7.86,7.86,0,0,1,4.89.63a7.93,7.93,0,0,1,6.21,0,7.86,7.86,0,0,1,4.26,4.26A7.82,7.82,0,0,1,16,8Z"/>
</svg>
