<svg xmlns="http://www.w3.org/2000/svg" width="16" height="16" viewBox="0 0 16 16">
    <path d="M14.5,6H1.5a.5.5,0,0,0-.5.5v3a.5.5,0,0,0,.5.5h13a.5.5,0,0,0,.5-.5v-3A.5.5,0,0,0,14.5,6ZM3,9a1,1,0,1,1,.71-.29A1,1,0,0,1,3,9Zm11.5,2H1.5a.5.5,0,0,0-.5.5v3a.5.5,0,0,0,.5.5h13a.5.5,0,0,0,.5-.5v-3A.5.5,0,0,0,14.5,11ZM3,14a1,1,0,0,1-.71-1.71A1,1,0,0,1,3,12a1,1,0,0,1,.69.29A1,1,0,0,1,3,14ZM14.5,1H1.5a.5.5,0,0,0-.5.5v3a.5.5,0,0,0,.5.5h13a.5.5,0,0,0,.5-.5v-3A.5.5,0,0,0,14.5,1ZM3,4a1,1,0,1,1,.71-.29A1,1,0,0,1,3,4Z"/>
</svg>
