<svg xmlns="http://www.w3.org/2000/svg" width="16" height="16" viewBox="0 0 16 16">
    <path d="M14.07,6.64l1.39-1.5A8,8,0,0,0,14.21,3l-2,.46A2,2,0,0,1,9.85,2.06l-.6-2A8,8,0,0,0,8,0,8,8,0,0,0,6.74.11l-.6,2A2,2,0,0,1,3.78,3.42L1.79,3A8,8,0,0,0,.54,5.14l1.39,1.5a2,2,0,0,1,0,2.73L.54,10.86A8,8,0,0,0,1.79,13l2-.46a2,2,0,0,1,2.36,1.36l.6,2A8,8,0,0,0,8,16a8,8,0,0,0,1.26-.11l.6-2a2,2,0,0,1,2.36-1.36l2,.46a8,8,0,0,0,1.25-2.18l-1.39-1.5A2,2,0,0,1,14.07,6.64ZM8,10.5A2.5,2.5,0,1,1,10.5,8,2.5,2.5,0,0,1,8,10.5Z"/>
</svg>
