<svg xmlns="http://www.w3.org/2000/svg" width="16" height="16" viewBox="0 0 16 16">
    <path d="M9.88,8A1.88,1.88,0,1,1,8,6.13,1.87,1.87,0,0,1,9.88,8ZM1,0H15a1,1,0,0,1,1,1V15a1,1,0,0,1-1,1H1a1,1,0,0,1-1-1V1A1,1,0,0,1,1,0ZM12.55,7l1-1.12a6,6,0,0,0-.94-1.63l-1.5.35a1.5,1.5,0,0,1-1.77-1L8.94,2.08A6,6,0,0,0,8,2a6,6,0,0,0-.94.08L6.61,3.55a1.5,1.5,0,0,1-1.77,1l-1.5-.35A6,6,0,0,0,2.4,5.86L3.45,7a1.5,1.5,0,0,1,0,2l-1,1.12a6,6,0,0,0,.94,1.63l1.5-.35a1.5,1.5,0,0,1,1.77,1l.45,1.46A6,6,0,0,0,8,14a6,6,0,0,0,.94-.08l.45-1.46a1.5,1.5,0,0,1,1.77-1l1.5.35a6,6,0,0,0,.94-1.63L12.55,9A1.5,1.5,0,0,1,12.55,7Z"/>
</svg>
