<svg xmlns="http://www.w3.org/2000/svg" width="16" height="16" viewBox="0 0 16 16">
    <path d="M6,14a1,1,0,1,1-.29-.71A1,1,0,0,1,6,14Zm6-1a1,1,0,1,0,.71.29A1,1,0,0,0,12,13ZM4.33,10a1.42,1.42,0,0,0,.23,0h8.22A1.5,1.5,0,0,0,14.2,9L16,3.66A.5.5,0,0,0,15.5,3H2.84L2.57,1.79A1,1,0,0,0,1.6,1H.5a.5.5,0,0,0,0,1H1.6L3.09,8.82a1.46,1.46,0,0,0,.36.66l-.17.35A1.5,1.5,0,0,0,4.62,12H14.5a.5.5,0,0,0,0-1H4.62a.5.5,0,0,1-.45-.72ZM3.5,6,3.06,4H14.81l-.67,2Zm.57,2.61L3.71,7H13.81l-.55,1.66a.5.5,0,0,1-.47.34H4.55A.5.5,0,0,1,4.07,8.61Z"/>
</svg>
