<svg xmlns="http://www.w3.org/2000/svg" width="16" height="16" viewBox="0 0 16 16">
    <path d="M15,10.3a.25.25,0,0,1,0,.39L13.4,11.94a.25.25,0,0,1-.4-.2V11H10.14a2.5,2.5,0,0,1-1.86-.83L7,8.75,5.72,10.17A2.5,2.5,0,0,1,3.86,11H1V10H3.86A1.5,1.5,0,0,0,5,9.5L6.33,8,5,6.5A1.5,1.5,0,0,0,3.86,6H1V5H3.86a2.5,2.5,0,0,1,1.86.83L7,7.25,8.28,5.83A2.5,2.5,0,0,1,10.14,5H13V4.26a.25.25,0,0,1,.4-.2L15,5.3a.25.25,0,0,1,0,.39L13.4,6.94a.25.25,0,0,1-.4-.2V6H10.14A1.5,1.5,0,0,0,9,6.5L7.67,8,9,9.5a1.5,1.5,0,0,0,1.11.5H13V9.26a.25.25,0,0,1,.4-.2Z"/>
</svg>
