<svg xmlns="http://www.w3.org/2000/svg" width="16" height="16" viewBox="0 0 16 16">
    <path d="M11.51,8.69a1.94,1.94,0,0,1,.18.83,2.4,2.4,0,0,1-.3,1.2,2.36,2.36,0,0,1-.81.85,4.15,4.15,0,0,1-1.12.49,4.77,4.77,0,0,1-1.28.17,5.53,5.53,0,0,1-2.65-.6Q4.43,11,4.43,10.2a1,1,0,0,1,.23-.68.85.85,0,0,1,.69-.27.9.9,0,0,1,.49.15,2.18,2.18,0,0,1,.42.35q.19.21.41.41a1.9,1.9,0,0,0,.59.35,2.25,2.25,0,0,0,.83.15,1.76,1.76,0,0,0,1-.23.68.68,0,0,0,.36-.59.6.6,0,0,0-.29-.55,4.41,4.41,0,0,0-1-.33L6.78,8.62a5.63,5.63,0,0,1-.94-.3,3.1,3.1,0,0,1-.73-.44,1.73,1.73,0,0,1-.51-.69,2.51,2.51,0,0,1-.17-1,2.19,2.19,0,0,1,1.12-2,4.19,4.19,0,0,1,1.09-.43,5.09,5.09,0,0,1,1.2-.14,6.4,6.4,0,0,1,1.66.21,3.51,3.51,0,0,1,1.29.62,1.16,1.16,0,0,1,.51.91,1,1,0,0,1-.26.7.88.88,0,0,1-.69.29.9.9,0,0,1-.44-.11A1.75,1.75,0,0,1,9.55,6L9.2,5.73a1.62,1.62,0,0,0-.49-.26A2.1,2.1,0,0,0,8,5.37q-1.31,0-1.31.7a.54.54,0,0,0,.07.27.76.76,0,0,0,.15.19.92.92,0,0,0,.27.15l.32.1.4.1.95.22q.45.1.8.21a5.07,5.07,0,0,1,.75.31,2.82,2.82,0,0,1,.67.45A2,2,0,0,1,11.51,8.69ZM15,11.5A3.5,3.5,0,0,1,11.5,15a3.41,3.41,0,0,1-2.13-.73A6.71,6.71,0,0,1,8,14.42a6.3,6.3,0,0,1-2.49-.51,6.28,6.28,0,0,1-3.42-3.42A6.31,6.31,0,0,1,1.58,8a6.71,6.71,0,0,1,.15-1.37A3.41,3.41,0,0,1,1,4.5,3.37,3.37,0,0,1,2,2,3.37,3.37,0,0,1,4.5,1a3.41,3.41,0,0,1,2.13.73A6.71,6.71,0,0,1,8,1.58a6.31,6.31,0,0,1,2.49.51,6.28,6.28,0,0,1,3.42,3.42A6.31,6.31,0,0,1,14.42,8a6.71,6.71,0,0,1-.15,1.37A3.41,3.41,0,0,1,15,11.5Zm-1,0A2.41,2.41,0,0,0,13.48,10l-.28-.36.09-.45A5.74,5.74,0,0,0,13.42,8,5.34,5.34,0,0,0,13,5.9,5.29,5.29,0,0,0,10.1,3,5.34,5.34,0,0,0,8,2.58a5.74,5.74,0,0,0-1.16.12l-.45.09L6,2.52A2.41,2.41,0,0,0,4.5,2a2.39,2.39,0,0,0-1.77.73A2.39,2.39,0,0,0,2,4.5,2.41,2.41,0,0,0,2.52,6l.28.36-.09.45A5.74,5.74,0,0,0,2.58,8,5.34,5.34,0,0,0,3,10.1,5.28,5.28,0,0,0,5.9,13a5.34,5.34,0,0,0,2.1.43,5.74,5.74,0,0,0,1.16-.12l.45-.09.36.28A2.41,2.41,0,0,0,11.5,14,2.5,2.5,0,0,0,14,11.5Z"/>
</svg>
