<svg xmlns="http://www.w3.org/2000/svg" width="16" height="16" viewBox="0 0 16 16">
    <path d="M11.69,9.52a1.94,1.94,0,0,0-.18-.83,2,2,0,0,0-.44-.62,2.82,2.82,0,0,0-.67-.45,5.07,5.07,0,0,0-.75-.31q-.35-.11-.8-.21l-.95-.22-.4-.1-.32-.1a.92.92,0,0,1-.27-.15.76.76,0,0,1-.15-.19.54.54,0,0,1-.07-.27q0-.7,1.31-.7a2.1,2.1,0,0,1,.7.11,1.62,1.62,0,0,1,.49.26L9.55,6a1.75,1.75,0,0,0,.36.26.9.9,0,0,0,.44.11A.88.88,0,0,0,11,6.12a1,1,0,0,0,.26-.7,1.16,1.16,0,0,0-.51-.91A3.51,3.51,0,0,0,9.49,3.9a6.4,6.4,0,0,0-1.66-.21,5.09,5.09,0,0,0-1.2.14,4.19,4.19,0,0,0-1.09.43,2.19,2.19,0,0,0-1.12,2,2.51,2.51,0,0,0,.17,1,1.73,1.73,0,0,0,.51.69,3.1,3.1,0,0,0,.73.44,5.64,5.64,0,0,0,.94.3l1.33.33a4.41,4.41,0,0,1,1,.33.6.6,0,0,1,.29.55.68.68,0,0,1-.36.59,1.76,1.76,0,0,1-1,.23,2.25,2.25,0,0,1-.83-.15,1.9,1.9,0,0,1-.59-.35q-.22-.21-.41-.41a2.18,2.18,0,0,0-.42-.35.9.9,0,0,0-.49-.15.85.85,0,0,0-.69.27,1,1,0,0,0-.23.68q0,.84,1.11,1.44a5.53,5.53,0,0,0,2.65.6,4.77,4.77,0,0,0,1.28-.17,4.15,4.15,0,0,0,1.12-.49,2.36,2.36,0,0,0,.81-.85A2.4,2.4,0,0,0,11.69,9.52Zm3.31,2A3.5,3.5,0,0,1,11.5,15a3.41,3.41,0,0,1-2.13-.73A6.71,6.71,0,0,1,8,14.42a6.31,6.31,0,0,1-2.49-.51,6.28,6.28,0,0,1-3.42-3.42A6.31,6.31,0,0,1,1.58,8a6.71,6.71,0,0,1,.15-1.37A3.41,3.41,0,0,1,1,4.5,3.37,3.37,0,0,1,2,2,3.37,3.37,0,0,1,4.5,1a3.41,3.41,0,0,1,2.13.73A6.71,6.71,0,0,1,8,1.58a6.31,6.31,0,0,1,2.49.51,6.28,6.28,0,0,1,3.42,3.42A6.31,6.31,0,0,1,14.42,8a6.71,6.71,0,0,1-.15,1.37A3.41,3.41,0,0,1,15,11.5Z"/>
</svg>
