<svg xmlns="http://www.w3.org/2000/svg" width="16" height="16" viewBox="0 0 16 16">
    <path d="M8.16.48a4.16,4.16,0,0,1,2.35.67A4.4,4.4,0,0,1,12.11,3a4.38,4.38,0,0,1,.26,1.75q0,.46-.09,1.87a.61.61,0,0,0,.27.07,1.45,1.45,0,0,0,.5-.13,1.45,1.45,0,0,1,.5-.13,1,1,0,0,1,.55.18.53.53,0,0,1,.26.45.63.63,0,0,1-.31.53,2,2,0,0,1-.68.31,2.39,2.39,0,0,0-.68.28.55.55,0,0,0-.31.47,1.18,1.18,0,0,0,.12.42,5.18,5.18,0,0,0,1,1.47,4.22,4.22,0,0,0,1.41,1,4.39,4.39,0,0,0,.78.23.32.32,0,0,1,.27.34q0,.69-2.14,1a1,1,0,0,0-.11.38,1.36,1.36,0,0,1-.14.46.34.34,0,0,1-.32.18,4.42,4.42,0,0,1-.61-.06,4.45,4.45,0,0,0-.63-.06,3.16,3.16,0,0,0-.61,0,1.82,1.82,0,0,0-.62.22,5,5,0,0,0-.57.37q-.26.2-.57.4a2.92,2.92,0,0,1-.74.33,3.36,3.36,0,0,1-1,.13A3.24,3.24,0,0,1,7,15.39a2.84,2.84,0,0,1-.73-.33l-.56-.4a5,5,0,0,0-.57-.37,1.83,1.83,0,0,0-.61-.22,3.32,3.32,0,0,0-.62,0,3.83,3.83,0,0,0-.64.07,3.76,3.76,0,0,1-.57.07A.36.36,0,0,1,2.39,14a1.38,1.38,0,0,1-.14-.47,1.07,1.07,0,0,0-.11-.39Q0,12.81,0,12.12a.32.32,0,0,1,.27-.34,4.39,4.39,0,0,0,.78-.23,4.16,4.16,0,0,0,1.41-1,5.09,5.09,0,0,0,1-1.47,1.18,1.18,0,0,0,.12-.42.55.55,0,0,0-.31-.47,2.49,2.49,0,0,0-.68-.29,2.18,2.18,0,0,1-.68-.31.61.61,0,0,1-.31-.51.53.53,0,0,1,.25-.45.91.91,0,0,1,.54-.18,1.49,1.49,0,0,1,.47.13,1.51,1.51,0,0,0,.52.13.69.69,0,0,0,.31-.07Q3.62,5.27,3.62,4.8A4.41,4.41,0,0,1,3.89,3,4.15,4.15,0,0,1,5.57,1.1,5.33,5.33,0,0,1,8.16.48Z"/>
</svg>
