<svg xmlns="http://www.w3.org/2000/svg" width="37" height="16" viewBox="0 0 37 16">
    <path d="M12.54,15.62l.26-3.86-.26-8.37a.45.45,0,0,0-.12-.27A.34.34,0,0,0,12.16,3a.35.35,0,0,0-.26.11.37.37,0,0,0-.11.27l-.22,8.37.22,3.86a.42.42,0,0,0,.12.26.34.34,0,0,0,.25.1A.35.35,0,0,0,12.54,15.62Zm4.74-.46.18-3.38L17.26,2.4A.42.42,0,0,0,17.06,2a.45.45,0,0,0-.51,0,.42.42,0,0,0-.21.38l0,.1-.16,9.26s.06,1.27.18,3.78v0a.4.4,0,0,0,.1.27.45.45,0,0,0,.37.18.44.44,0,0,0,.32-.14.38.38,0,0,0,.14-.32ZM.56,9.71l.32,2-.32,2q0,.14-.14.14t-.14-.14l-.27-2,.27-2q0-.14.14-.14T.56,9.71ZM1.94,8.45l.42,3.31L1.94,15a.16.16,0,0,1-.16.14q-.14,0-.14-.16l-.37-3.23.37-3.31a.13.13,0,0,1,.14-.14A.16.16,0,0,1,1.94,8.45Zm1.47-.61.4,3.92-.4,3.79a.16.16,0,0,1-.18.18A.18.18,0,0,1,3,15.55L2.7,11.76,3,7.84q0-.19.19-.19T3.41,7.84Zm1.5-.11.37,4-.37,3.9a.21.21,0,0,1-.22.21.18.18,0,0,1-.21-.21l-.34-3.9.34-4a.18.18,0,0,1,.21-.21A.21.21,0,0,1,4.91,7.73ZM6.42,8l.34,3.74L6.42,15.7q0,.26-.26.26A.23.23,0,0,1,6,15.88a.25.25,0,0,1-.07-.18L5.6,11.76,5.92,8a.25.25,0,0,1,.24-.24A.24.24,0,0,1,6.42,8Zm1.5-2.34.34,6.08L7.92,15.7a.29.29,0,0,1-.08.2.25.25,0,0,1-.19.09q-.26,0-.29-.29l-.29-3.94.29-6.08q0-.29.29-.29a.25.25,0,0,1,.19.09A.29.29,0,0,1,7.92,5.68ZM9.42,4.3l.3,7.49-.3,3.9a.31.31,0,0,1-.62,0l-.26-3.9L8.8,4.3a.31.31,0,0,1,.62,0ZM11,3.66l.29,8.1L11,15.63a.32.32,0,0,1-.35.34q-.3,0-.34-.34L10,11.76l.26-8.1a.34.34,0,0,1,.1-.25.32.32,0,0,1,.23-.1.31.31,0,0,1,.24.1A.43.43,0,0,1,11,3.66Zm6.27,11.87ZM14.1,3.6l.24,8.16-.24,3.82a.41.41,0,0,1-.4.4.37.37,0,0,1-.27-.11.45.45,0,0,1-.13-.29l-.22-3.82L13.3,3.6a.38.38,0,0,1,.12-.29.41.41,0,0,1,.56,0A.38.38,0,0,1,14.1,3.6Zm1.58.3.22,7.87-.22,3.78a.43.43,0,0,1-.74.3.48.48,0,0,1-.14-.3l-.19-3.78L14.8,3.9a.5.5,0,0,1,.14-.32.42.42,0,0,1,.3-.13.39.39,0,0,1,.3.13A.52.52,0,0,1,15.68,3.9Zm3.39,7.87-.22,3.7h0a.5.5,0,0,1-.85.35.54.54,0,0,1-.16-.35l-.1-1.82-.1-1.87L17.84,1.6v0A.6.6,0,0,1,18,1.17a.51.51,0,0,1,.32-.11.41.41,0,0,1,.24.08.51.51,0,0,1,.26.42Zm17.79-.3A4.52,4.52,0,0,1,32.34,16H19.76a.62.62,0,0,1-.35-.18.48.48,0,0,1-.14-.35V1.07q0-.37.45-.53A8,8,0,0,1,28,2.1a7.74,7.74,0,0,1,2.56,5.18,4.55,4.55,0,0,1,1.76-.35,4.53,4.53,0,0,1,4.53,4.54Z"/>
</svg>
