<svg xmlns="http://www.w3.org/2000/svg" width="16" height="16" viewBox="0 0 16 16">
    <path d="M10.47,16a.5.5,0,0,1-.2-1,7.61,7.61,0,0,0,4.17-4.56A7.38,7.38,0,0,0,14,4.86,7,7,0,0,0,10,1.32a6.85,6.85,0,0,0-5.2.42A6.45,6.45,0,0,0,1.49,5.5a6.31,6.31,0,0,0,.4,4.79,5.92,5.92,0,0,0,3.46,3,5.77,5.77,0,0,0,4.38-.39,5.39,5.39,0,0,0,2.7-3.17,5.23,5.23,0,0,0-.37-4A4.86,4.86,0,0,0,9.2,3.32a4.69,4.69,0,0,0-3.57.35A4.32,4.32,0,0,0,3.49,6.24a4.16,4.16,0,0,0,.34,3.16,3.8,3.8,0,0,0,2.28,1.86,3.62,3.62,0,0,0,2.75-.32,3.26,3.26,0,0,0,1.58-2,3.08,3.08,0,0,0-.3-2.35A2.73,2.73,0,0,0,8.47,5.32a2.53,2.53,0,0,0-1.94.28A2.2,2.2,0,0,0,5.5,7a2,2,0,0,0,.26,1.53,1.67,1.67,0,0,0,1.07.75A1.49,1.49,0,0,0,8,9a1.12,1.12,0,0,0,.48-.76,1,1,0,0,0-.19-.72.57.57,0,0,0-.43-.22.42.42,0,0,0-.31.13.53.53,0,0,1-.37.63.49.49,0,0,1-.61-.35,1,1,0,0,1,.21-.91,1.4,1.4,0,0,1,1.12-.49A1.57,1.57,0,0,1,9,6.92a1.94,1.94,0,0,1,.41,1.5,2.12,2.12,0,0,1-.9,1.43,2.51,2.51,0,0,1-1.9.39A2.66,2.66,0,0,1,4.91,9a3,3,0,0,1-.39-2.3A3.19,3.19,0,0,1,6,4.74a3.55,3.55,0,0,1,2.71-.39A3.73,3.73,0,0,1,11,6.13a4.09,4.09,0,0,1,.4,3.11,4.25,4.25,0,0,1-2.06,2.58,4.62,4.62,0,0,1-3.52.41A4.79,4.79,0,0,1,3,9.88,5.17,5.17,0,0,1,2.54,6,5.32,5.32,0,0,1,5.16,2.79,5.7,5.7,0,0,1,9.5,2.36,5.85,5.85,0,0,1,13,5.27,6.24,6.24,0,0,1,13.4,10a6.38,6.38,0,0,1-3.19,3.76,6.78,6.78,0,0,1-5.15.45,6.91,6.91,0,0,1-4-3.48A7.32,7.32,0,0,1,.54,5.19,7.44,7.44,0,0,1,4.3.84a7.86,7.86,0,0,1,6-.48,8,8,0,0,1,4.64,4,8.39,8.39,0,0,1,.49,6.37,8.62,8.62,0,0,1-4.72,5.16A.5.5,0,0,1,10.47,16Z"/>
</svg>
