<svg xmlns="http://www.w3.org/2000/svg" width="16" height="16" viewBox="0 0 16 16">
    <path d="M8,0a8,8,0,1,0,8,8A8,8,0,0,0,8,0Zm3.7,12.69a.55.55,0,0,1-.75.22,8.75,8.75,0,0,0-6.79-.69.55.55,0,0,1-.69-.36c-.09-.29.07-.9.36-1a9.85,9.85,0,0,1,7.65.78A1,1,0,0,1,11.7,12.69Zm1-3c-.11.22-.34.58-.57.58a.63.63,0,0,1-.3-.07,11,11,0,0,0-5.1-1.24,11.08,11.08,0,0,0-2.92.39A.64.64,0,0,1,3,8.88c-.09-.34.11-.92.45-1a12.4,12.4,0,0,1,9,1A.64.64,0,0,1,12.71,9.68Zm1.08-2.9a.82.82,0,0,1-.66.48.73.73,0,0,1-.33-.08A13.47,13.47,0,0,0,6.74,5.76a13.73,13.73,0,0,0-3.29.4.73.73,0,0,1-.89-.53.82.82,0,0,1,.54-1,15.11,15.11,0,0,1,3.64-.44A14.94,14.94,0,0,1,13.46,5.8.73.73,0,0,1,13.79,6.78Z"/>
</svg>
