<svg xmlns="http://www.w3.org/2000/svg" width="16" height="16" viewBox="0 0 16 16">
    <path d="M7.06,5.16a11.35,11.35,0,0,0-2.73.33.61.61,0,0,0-.4.72.55.55,0,0,0,.67.4,10.28,10.28,0,0,1,2.47-.3,10.1,10.1,0,0,1,4.55,1.07.55.55,0,0,0,.24.06.61.61,0,0,0,.49-.36.55.55,0,0,0-.25-.74A11.2,11.2,0,0,0,7.06,5.16Zm0,4.65a7.41,7.41,0,0,0-2.18.33c-.22.07-.34.53-.27.75a.41.41,0,0,0,.52.27,6.56,6.56,0,0,1,5.09.52.41.41,0,0,0,.56-.16.74.74,0,0,0-.16-.79A7.4,7.4,0,0,0,7.06,9.82Zm4.27-1.21A9.3,9.3,0,0,0,4.61,7.9c-.26.07-.41.51-.34.76A.48.48,0,0,0,4.87,9,8.35,8.35,0,0,1,7.06,8.7a8.22,8.22,0,0,1,3.83.93.47.47,0,0,0,.22.05c.17,0,.34-.27.43-.43A.48.48,0,0,0,11.33,8.61ZM8,0a8,8,0,1,0,8,8A8,8,0,0,0,8,0ZM8,14a6,6,0,1,1,6-6A6,6,0,0,1,8,14Z"/>
</svg>
