<svg xmlns="http://www.w3.org/2000/svg" width="16" height="16" viewBox="0 0 16 16">
    <path d="M1,9.91a.6.6,0,0,1,.19-.64L2.46,8,1.22,6.78A.6.6,0,0,1,1,6.15.61.61,0,0,1,1.5,5.7l1.72-.45L2.74,3.57a.57.57,0,0,1,.16-.64.57.57,0,0,1,.64-.16l1.69.48.45-1.72a.61.61,0,0,1,.45-.48.6.6,0,0,1,.64.19L8,2.52,9.24,1.24a.6.6,0,0,1,.64-.19.61.61,0,0,1,.45.48l.45,1.72,1.69-.48a.57.57,0,0,1,.64.16.57.57,0,0,1,.16.64l-.48,1.69,1.72.45a.61.61,0,0,1,.48.45.6.6,0,0,1-.19.64L13.54,8l1.24,1.24a.6.6,0,0,1,.19.64.61.61,0,0,1-.48.45l-1.72.45.48,1.69a.64.64,0,0,1-.8.8l-1.69-.48-.45,1.72a.61.61,0,0,1-.45.48H9.69a.55.55,0,0,1-.45-.19L8,13.57,6.76,14.81a.6.6,0,0,1-.64.19.61.61,0,0,1-.45-.48l-.45-1.72-1.69.48a.57.57,0,0,1-.64-.16.57.57,0,0,1-.16-.64l.48-1.69L1.5,10.35A.61.61,0,0,1,1,9.91Z"/>
</svg>
