<svg xmlns="http://www.w3.org/2000/svg" width="16" height="16" viewBox="0 0 16 16">
    <path d="M9.52,2.39,9.8,3.5l.26,1,1-.28,1.08-.3L11.82,5l-.28,1,1,.26,1.12.29-.81.81L12.13,8l.71.71.81.81-1.12.29-1,.26.28,1,.3,1.08L11,11.84l-1-.28-.26,1-.29,1.12-.81-.81L8,12.16l-.71.71-.81.81L6.2,12.55l-.26-1-1,.28-1.08.3.3-1.08.28-1-1-.26L2.36,9.54l.81-.81L3.87,8l-.71-.71-.81-.81,1.12-.29,1-.26L4.18,5l-.3-1.08L5,4.21l1,.28.26-1,.29-1.11.8.82L8,3.95l.72-.73.8-.82M9.7,1a.59.59,0,0,0-.45.22L8,2.52,6.76,1.24A.59.59,0,0,0,6.3,1l-.18,0a.61.61,0,0,0-.45.48L5.23,3.25,3.54,2.77a.61.61,0,0,0-.21,0,.6.6,0,0,0-.43.2.57.57,0,0,0-.16.64l.48,1.69L1.5,5.7A.61.61,0,0,0,1,6.15a.6.6,0,0,0,.19.64L2.46,8,1.22,9.27A.6.6,0,0,0,1,9.91a.61.61,0,0,0,.48.45l1.72.45-.48,1.69a.57.57,0,0,0,.16.64.6.6,0,0,0,.43.2.61.61,0,0,0,.21,0l1.69-.48.45,1.72a.61.61,0,0,0,.45.48l.18,0a.59.59,0,0,0,.45-.22L8,13.57l1.24,1.24a.55.55,0,0,0,.45.19h.19a.61.61,0,0,0,.45-.48l.45-1.72,1.69.48a.61.61,0,0,0,.21,0,.6.6,0,0,0,.43-.2.57.57,0,0,0,.16-.64l-.48-1.69,1.72-.45A.61.61,0,0,0,15,9.91a.6.6,0,0,0-.19-.64L13.54,8l1.24-1.24A.6.6,0,0,0,15,6.15a.61.61,0,0,0-.48-.45l-1.72-.45.48-1.69a.57.57,0,0,0-.16-.64.6.6,0,0,0-.43-.2.61.61,0,0,0-.21,0l-1.69.48-.45-1.72a.61.61,0,0,0-.45-.48L9.7,1Z"/>
</svg>
