<svg xmlns="http://www.w3.org/2000/svg" width="16" height="16" viewBox="0 0 16 16">
    <path d="M8,4a4,4,0,1,0,4,4A4,4,0,0,0,8,4Zm0,7a3,3,0,1,1,3-3A3,3,0,0,1,8,11ZM9,1A6.61,6.61,0,0,1,8,3,6.61,6.61,0,0,1,7,1,1,1,0,0,1,9,1ZM8,16a1,1,0,0,0,1-1,6.61,6.61,0,0,0-1-2,6.61,6.61,0,0,0-1,2A1,1,0,0,0,8,16ZM13.66,3.76a6.61,6.61,0,0,1-2.12.71,6.61,6.61,0,0,1,.71-2.12,1,1,0,0,1,1.41,1.41ZM2.34,13.66a1,1,0,0,0,1.41,0,6.61,6.61,0,0,0,.71-2.12,6.61,6.61,0,0,0-2.12.71A1,1,0,0,0,2.34,13.66ZM3.76,2.34a6.61,6.61,0,0,1,.71,2.12,6.61,6.61,0,0,1-2.12-.71A1,1,0,0,1,3.76,2.34Zm9.9,11.31a1,1,0,0,0,0-1.41,6.61,6.61,0,0,0-2.12-.71,6.61,6.61,0,0,0,.71,2.12A1,1,0,0,0,13.66,13.66ZM1,7A6.61,6.61,0,0,1,3,8,6.61,6.61,0,0,1,1,9,1,1,0,0,1,1,7ZM16,8a1,1,0,0,0-1-1,6.61,6.61,0,0,0-2,1,6.61,6.61,0,0,0,2,1A1,1,0,0,0,16,8Z"/>
</svg>
