<svg xmlns="http://www.w3.org/2000/svg" width="16" height="16" viewBox="0 0 16 16">
    <path d="M9.74,9.09,9,8.38,9.39,8l.71.71Zm1.41-1.41L9.74,6.26l-.35.35L10.8,8ZM9,9.8,7.62,8.38l-.35.35,1.41,1.41Zm3.18-3.18-.71-.71-.35.35.71.71ZM8,10.86l-.71-.71-.35.35.71.71Zm-3.36.88L1,15.35v-.71l3.26-3.26L3.91,11a.24.24,0,0,1,0-.35l.18-.18L3.38,9.8a1,1,0,0,1,0-1.41l6.72-6.72a.5.5,0,0,1,.71,0l1.41,1.41,1.41-1.41L12.75.78a.25.25,0,0,1,0-.35L13.1.07a.25.25,0,0,1,.35,0l2.47,2.47a.25.25,0,0,1,0,.35l-.35.35a.25.25,0,0,1-.35,0l-.88-.88L12.92,3.79,14.34,5.2a.5.5,0,0,1,0,.71L7.62,12.62a1,1,0,0,1-1.41,0l-.71-.71-.18.18a.24.24,0,0,1-.35,0Zm1.94.53a.5.5,0,0,0,.71,0L14,5.55,10.45,2,3.73,8.73a.5.5,0,0,0,0,.71Z"/>
</svg>
