<svg xmlns="http://www.w3.org/2000/svg" width="16" height="16" viewBox="0 0 16 16">
    <path d="M10.21,6.13A1.75,1.75,0,1,0,8.46,4.38,1.75,1.75,0,0,0,10.21,6.13Zm0-2.62a.88.88,0,1,1-.88.88A.88.88,0,0,1,10.21,3.5Zm3-2.09a4.81,4.81,0,0,0-6.81,0h0L1.43,6.15,2.89,7.6,1.43,9l7,7,4.74-4.94h0a4.78,4.78,0,0,0,1.17-4.83A4.79,4.79,0,0,0,13.17,1.41ZM7,2a3.94,3.94,0,1,1,5.56,5.58L8.42,11.9,2.68,6.16Zm5.56,8.43-4.12,4.3L2.68,9l.82-.79,4.93,4.93,4.74-4.94h0a4.8,4.8,0,0,0,.51-.63A3.91,3.91,0,0,1,12.55,10.46Z"/>
</svg>
