<svg xmlns="http://www.w3.org/2000/svg" width="16" height="16" viewBox="0 0 16 16">
    <path d="M2.5,14.5A.5.5,0,0,0,3,15H13a.5.5,0,0,0,.5-.5V5H2.5Zm8-7.25A.25.25,0,0,1,10.75,7h.5a.25.25,0,0,1,.25.25v5.5a.25.25,0,0,1-.25.25h-.5a.25.25,0,0,1-.25-.25Zm-3,0A.25.25,0,0,1,7.75,7h.5a.25.25,0,0,1,.25.25v5.5a.25.25,0,0,1-.25.25h-.5a.25.25,0,0,1-.25-.25Zm-3,0A.25.25,0,0,1,4.75,7h.5a.25.25,0,0,1,.25.25v5.5a.25.25,0,0,1-.25.25h-.5a.25.25,0,0,1-.25-.25Zm9-4.75V4H2.5V2.5A.5.5,0,0,1,3,2H6.5V1.25A.25.25,0,0,1,6.75,1h2.5a.25.25,0,0,1,.25.25V2H13A.5.5,0,0,1,13.5,2.5Z"/>
</svg>
