<svg xmlns="http://www.w3.org/2000/svg" width="16" height="16" viewBox="0 0 16 16">
    <path d="M1,14.75a.25.25,0,0,0,.25.25h10.5a.25.25,0,0,0,.25-.25V5H1ZM2,6h9v8H2ZM4,7.25v5.5a.25.25,0,0,1-.25.25h-.5A.25.25,0,0,1,3,12.75V7.25A.25.25,0,0,1,3.25,7h.5A.25.25,0,0,1,4,7.25Zm3,0v5.5a.25.25,0,0,1-.25.25h-.5A.25.25,0,0,1,6,12.75V7.25A.25.25,0,0,1,6.25,7h.5A.25.25,0,0,1,7,7.25Zm3,0v5.5a.25.25,0,0,1-.25.25h-.5A.25.25,0,0,1,9,12.75V7.25A.25.25,0,0,1,9.25,7h.5A.25.25,0,0,1,10,7.25ZM12,3V4H1V3ZM8,2H5V1.25A.25.25,0,0,1,5.25,1h2.5A.25.25,0,0,1,8,1.25Z"/>
</svg>
