<svg xmlns="http://www.w3.org/2000/svg" width="16" height="16" viewBox="0 0 16 16">
    <path d="M16,3a6.87,6.87,0,0,1-1.64,1.7q0,.14,0,.43A9.32,9.32,0,0,1,14,7.8a9.52,9.52,0,0,1-1.17,2.52,9.92,9.92,0,0,1-1.87,2.14,8.34,8.34,0,0,1-2.62,1.48A9.59,9.59,0,0,1,5,14.5,9.11,9.11,0,0,1,0,13a7,7,0,0,0,.79,0,6.42,6.42,0,0,0,4.07-1.4A3.29,3.29,0,0,1,1.8,9.39a4.15,4.15,0,0,0,.62.05,3.39,3.39,0,0,0,.86-.11A3.23,3.23,0,0,1,1.4,8.2,3.17,3.17,0,0,1,.65,6.11v0a3.25,3.25,0,0,0,1.48.42A3.28,3.28,0,0,1,1.07,5.32a3.2,3.2,0,0,1-.4-1.56A3.21,3.21,0,0,1,1.12,2.1a9.3,9.3,0,0,0,3,2.42,9.14,9.14,0,0,0,3.77,1,3.64,3.64,0,0,1-.08-.75,3.16,3.16,0,0,1,1-2.32,3.29,3.29,0,0,1,4.72.08,6.43,6.43,0,0,0,2.08-.79,3.18,3.18,0,0,1-1.44,1.81A6.53,6.53,0,0,0,16,3Z"/>
</svg>
