<svg xmlns="http://www.w3.org/2000/svg" width="16" height="16" viewBox="0 0 16 16">
    <path d="M5.53,10.47a.5.5,0,0,1,0-.71L9.77,5.53a.5.5,0,0,1,.71.71L6.23,10.47A.5.5,0,0,1,5.53,10.47ZM13.3,2.7a2.5,2.5,0,0,0-3.54,0L8.35,4.11a2.51,2.51,0,0,0-.71,2.12L10.47,3.4A1.5,1.5,0,1,1,12.6,5.53L9.77,8.35a2.51,2.51,0,0,0,2.12-.71L13.3,6.23A2.5,2.5,0,0,0,13.3,2.7ZM8.35,9.77,5.53,12.6A1.5,1.5,0,1,1,3.4,10.47L6.23,7.65a2.51,2.51,0,0,0-2.12.71L2.7,9.77A2.5,2.5,0,0,0,6.23,13.3l1.41-1.41A2.51,2.51,0,0,0,8.35,9.77ZM4.87,6.54H4.79L2.67,5.82a.25.25,0,0,1,.16-.47L5,6a.25.25,0,0,1-.08.49Zm.71-.71a.25.25,0,0,1-.18-.07L2.57,2.93a.25.25,0,0,1,.35-.35L5.75,5.4a.25.25,0,0,1-.18.43Zm.71-.71A.25.25,0,0,1,6,5L5.34,2.83a.25.25,0,1,1,.47-.16l.71,2.12a.25.25,0,0,1-.16.32Zm4.14,8.38a.25.25,0,0,1-.24-.17l-.71-2.12A.25.25,0,1,1,10,11l.71,2.12a.25.25,0,0,1-.16.32Zm2.83,0a.25.25,0,0,1-.18-.07L10.25,10.6a.25.25,0,0,1,.35-.35l2.83,2.83a.25.25,0,0,1-.18.43Zm0-2.83h-.08L11,10a.25.25,0,1,1,.16-.47l2.12.71a.25.25,0,0,1-.08.49Z"/>
</svg>
