<svg xmlns="http://www.w3.org/2000/svg" width="16" height="16" viewBox="0 0 16 16">
    <path d="M14,8V9.59a7.33,7.33,0,0,1-1.63.19A13.49,13.49,0,0,1,11,12a16,16,0,0,1-1.49,1.77,5.5,5.5,0,0,1-1.05.88,1.26,1.26,0,0,1-1.33,0,4.48,4.48,0,0,1-.5-.36,7.39,7.39,0,0,1-.7-.69,10.11,10.11,0,0,1-.84-1.06A13.06,13.06,0,0,1,4.2,11a17.89,17.89,0,0,1-.87-2,23.49,23.49,0,0,1-.75-2.59A31.52,31.52,0,0,1,2,3.21H4.33a27.8,27.8,0,0,0,.58,3.28A15.55,15.55,0,0,0,5.77,9.1a16.34,16.34,0,0,0,1,1.94,14.5,14.5,0,0,0,1.15,1.6,12.65,12.65,0,0,0,2.36-3.34A4.26,4.26,0,0,1,8.44,7.49a5.61,5.61,0,0,1-.67-2.74,3.86,3.86,0,0,1,.86-2.59,2.9,2.9,0,0,1,2.34-1A2.87,2.87,0,0,1,13.22,2,3.53,3.53,0,0,1,14,4.47a5.6,5.6,0,0,1-.48,2.35l-.16,0-.38,0a2.6,2.6,0,0,1-.52,0A1.64,1.64,0,0,1,12,6.61a1.14,1.14,0,0,1-.42-.42,5.32,5.32,0,0,0,.26-1.51,2,2,0,0,0-.24-1.09.74.74,0,0,0-.65-.37.8.8,0,0,0-.7.41,2.13,2.13,0,0,0-.26,1.16,3.31,3.31,0,0,0,.86,2.42,2.94,2.94,0,0,0,2.2.88A4.3,4.3,0,0,0,14,8Z"/>
</svg>
