<svg xmlns="http://www.w3.org/2000/svg" width="16" height="16" viewBox="0 0 16 16">
    <path d="M13.28,7.92c-.19.3-.26.45,0,.78s.8.78,1.21,1.26A7.52,7.52,0,0,1,16,12c.14.49-.11.74-.61.74H13.6c-.67,0-.86-.53-2.05-1.72-1-1-1.48-1.13-1.74-1.13s-.46.1-.46.6v1.57c0,.43-.14.68-1.25.68a6.82,6.82,0,0,1-5.34-3.2C.59,6.51,0,4.21,0,3.74c0-.26.1-.5.6-.5H2.35c.45,0,.62.2.78.68C4,6.42,5.43,8.6,6,8.6c.22,0,.32-.1.32-.67V5.36c-.06-1.19-.7-1.28-.7-1.71a.42.42,0,0,1,.45-.4H8.85c.37,0,.49.2.49.64V7.36c0,.37.17.5.28.5s.41-.13.82-.54a14.64,14.64,0,0,0,2.15-3.58.76.76,0,0,1,.76-.5H15.1c.53,0,.64.27.53.64A21.92,21.92,0,0,1,13.28,7.92Z"/>
</svg>
