<svg xmlns="http://www.w3.org/2000/svg" width="16" height="16" viewBox="0 0 16 16">
    <path d="M8,0A8,8,0,0,0,0,8v2H16V8A8,8,0,0,0,8,0ZM8,2h.1A12.49,12.49,0,0,1,9.52,5h-3A12.49,12.49,0,0,1,7.9,2ZM5,8H2a6,6,0,0,1,.35-2H5.2A10.62,10.62,0,0,0,5,8ZM2.81,5A6,6,0,0,1,6.63,2.16,13,13,0,0,0,5.43,5ZM6,8a9.6,9.6,0,0,1,.22-2H9.78A9.6,9.6,0,0,1,10,8ZM9.37,2.16A6,6,0,0,1,13.19,5H10.57A13,13,0,0,0,9.37,2.16ZM11,8a10.62,10.62,0,0,0-.2-2h2.85A6,6,0,0,1,14,8Zm4.5,3H.5a.5.5,0,0,0-.5.5v3a.5.5,0,0,0,.5.5h15a.5.5,0,0,0,.5-.5v-3A.5.5,0,0,0,15.5,11ZM2,14a1,1,0,1,1,.71-.29A1,1,0,0,1,2,14Z"/>
</svg>
