<svg xmlns="http://www.w3.org/2000/svg" width="16" height="16" viewBox="0 0 16 16">
    <path d="M10,8.71a4.15,4.15,0,0,1,.89.4,4,4,0,0,1,.82.48.39.39,0,0,1,0,.14,1.92,1.92,0,0,1-.15.69,1.22,1.22,0,0,1-.65.6,2.16,2.16,0,0,1-.93.24,4.92,4.92,0,0,1-1.73-.57A5.2,5.2,0,0,1,6.69,9.62,12,12,0,0,1,5.34,7.94a3.19,3.19,0,0,1-.65-1.77V6.1a2,2,0,0,1,.67-1.44.69.69,0,0,1,.47-.2h.34a.37.37,0,0,1,.24.06.66.66,0,0,1,.14.25l.3.8a5.33,5.33,0,0,1,.23.68.92.92,0,0,1-.31.52q-.31.33-.31.42a.26.26,0,0,0,0,.14,4.1,4.1,0,0,0,.93,1.25,5.81,5.81,0,0,0,1.38.92A.4.4,0,0,0,9,9.6q.14,0,.49-.44T10,8.71ZM8.13,13.54a5.57,5.57,0,0,0,2.22-.46,5.64,5.64,0,0,0,3-3,5.63,5.63,0,0,0,0-4.44,5.64,5.64,0,0,0-3-3,5.63,5.63,0,0,0-4.44,0,5.64,5.64,0,0,0-3,3,5.67,5.67,0,0,0,.64,5.57L2.78,13.3,5,12.59A5.6,5.6,0,0,0,8.13,13.54Zm0-12.6a6.68,6.68,0,0,1,2.67.55,6.79,6.79,0,0,1,3.66,3.66,6.77,6.77,0,0,1,0,5.33,6.79,6.79,0,0,1-3.66,3.66,6.68,6.68,0,0,1-2.67.55,6.77,6.77,0,0,1-3.33-.86L1,15.05l1.24-3.69A6.83,6.83,0,0,1,1.8,5.15,6.79,6.79,0,0,1,5.46,1.49,6.68,6.68,0,0,1,8.13.95Z"/>
</svg>
