<svg xmlns="http://www.w3.org/2000/svg" width="16" height="16" viewBox="0 0 16 16">
    <path d="M10.38,13.16l-2-4.83-1.1,2.12q-.93,1.78-1.38,2.7H5.47Q4.9,11.81,3.7,9.07T1.9,4.94a3.28,3.28,0,0,0-.46-.75,3.8,3.8,0,0,0-.72-.7A1.25,1.25,0,0,0,0,3.19S0,3.11,0,3s0-.15,0-.19H4v.35a2,2,0,0,0-.55.11,1.08,1.08,0,0,0-.46.3A.38.38,0,0,0,3,4L4.47,7.5q1.32,3.06,1.64,3.75l1-1.85L8,7.69q-.13-.27-.87-2t-.94-2q-.26-.48-1.4-.49V2.84H8.33v.33a1.21,1.21,0,0,0-.65.17q-.23.16-.09.48l.6,1.32.6,1.3Q9.56,5,10,3.93q.17-.38-.07-.55A1.71,1.71,0,0,0,9,3.19,1.44,1.44,0,0,0,9,3V2.85h3.08v.34a1.83,1.83,0,0,0-.83.23,1.71,1.71,0,0,0-.62.56L9.19,7q.09.23.89,2l.84,1.9L14,3.89a.9.9,0,0,0-.34-.43,1.38,1.38,0,0,0-.45-.22,2,2,0,0,0-.39-.06V2.84l3.19,0h0v.31a1.5,1.5,0,0,0-1.4,1l-3.88,9Z"/>
</svg>
