<svg xmlns="http://www.w3.org/2000/svg" width="16" height="16" viewBox="0 0 16 16">
    <path d="M16,8a7.78,7.78,0,0,0-.64-3.1A7.9,7.9,0,0,0,11.1.64a7.9,7.9,0,0,0-6.21,0A7.87,7.87,0,0,0,.63,4.9,7.82,7.82,0,0,0,0,8a8,8,0,0,0,.4,2.52,7.63,7.63,0,0,0,1.14,2.2,8.66,8.66,0,0,0,1.72,1.72,7.63,7.63,0,0,0,2.2,1.14A8,8,0,0,0,8,16a7.82,7.82,0,0,0,3.1-.63,7.87,7.87,0,0,0,4.26-4.26A7.81,7.81,0,0,0,16,8ZM6.22,12.3,3.5,5l.94-.06a.3.3,0,0,0,.26-.25.64.64,0,0,0,0-.44A.28.28,0,0,0,4.38,4q-1.16.09-1.9.09H2A7.1,7.1,0,0,1,8,.89a7.11,7.11,0,0,1,4.84,1.87,1.12,1.12,0,0,0-.89.27,1.2,1.2,0,0,0-.43,1,1.33,1.33,0,0,0,0,.3q0,.16.07.26a2,2,0,0,0,.13.29l.14.25.18.3.17.28a3.92,3.92,0,0,1,.44,2A6.19,6.19,0,0,1,12.4,9.2q-.28,1-.56,1.74l-.28.74L9.14,5l.36,0,.24-.06.06,0q.19,0,.26-.26a.79.79,0,0,0,0-.48q-.09-.24-.28-.23Q8.59,4,7.84,4l-.78,0-.78,0L6,3.86q-.19,0-.28.23a.8.8,0,0,0,0,.49q.06.25.26.26l.74.06,1,2.73L6.22,12.3ZM13.93,8l.14-.38q0-.12.13-.48a4.66,4.66,0,0,0,.12-.68q0-.32,0-.82a8,8,0,0,0-.07-1A7,7,0,0,1,15.11,8a7.19,7.19,0,0,1-1,3.63,6.84,6.84,0,0,1-2.57,2.6q2-5.29,2.34-6.22Zm-9,6.47A6.89,6.89,0,0,1,2,11.85,7.13,7.13,0,0,1,.89,8a7,7,0,0,1,.58-2.87q2.69,7.37,3.42,9.34ZM8.1,9.17l2.06,5.58A6.72,6.72,0,0,1,8,15.11a6.24,6.24,0,0,1-1.83-.26l.9-2.64,1-3Z"/>
</svg>
