<svg xmlns="http://www.w3.org/2000/svg" width="16" height="16" viewBox="0 0 16 16">
    <path d="M16,8a8,8,0,0,0-.4-2.52,7.63,7.63,0,0,0-1.14-2.2,8.66,8.66,0,0,0-1.72-1.72A7.63,7.63,0,0,0,10.52.4a8.09,8.09,0,0,0-5,0,7.63,7.63,0,0,0-2.2,1.14A8.66,8.66,0,0,0,1.55,3.27,7.63,7.63,0,0,0,.4,5.48a8.09,8.09,0,0,0,0,5,7.63,7.63,0,0,0,1.14,2.2,8.66,8.66,0,0,0,1.72,1.72,7.63,7.63,0,0,0,2.2,1.14,8.09,8.09,0,0,0,5,0,7.63,7.63,0,0,0,2.2-1.14,8.66,8.66,0,0,0,1.72-1.72,7.63,7.63,0,0,0,1.14-2.2A8,8,0,0,0,16,8ZM8,.81a7.06,7.06,0,0,1,2.8.57A7.05,7.05,0,0,1,14.62,5.2a7.17,7.17,0,0,1,0,5.59,7.05,7.05,0,0,1-3.83,3.83,7.17,7.17,0,0,1-5.59,0A7.05,7.05,0,0,1,1.38,10.8a7.17,7.17,0,0,1,0-5.59A7.05,7.05,0,0,1,5.2,1.38,7.06,7.06,0,0,1,8,.81Zm-1.59,11L4,5.29l.84-.06Q5,5.21,5,5a.6.6,0,0,0,0-.39.24.24,0,0,0-.24-.18q-1,.08-1.7.08H2.64a6.4,6.4,0,0,1,2.3-2.1A6.27,6.27,0,0,1,8,1.62,6.39,6.39,0,0,1,12.33,3.3a1,1,0,0,0-.79.24,1.08,1.08,0,0,0-.37.89,1.48,1.48,0,0,0,.09.49,2.9,2.9,0,0,0,.18.42l.3.49.06.1a3.51,3.51,0,0,1,.4,1.77,5.53,5.53,0,0,1-.25,1.38q-.25.9-.51,1.55l-.26.66L9,5.29l.32,0,.22-.06.06,0q.16,0,.22-.24a.67.67,0,0,0,0-.43q-.08-.21-.24-.2-1,.09-1.71.09l-.7,0-.7,0-.29,0q-.16,0-.24.2a.68.68,0,0,0,0,.43q.06.22.22.23l.67.06.9,2.43-1.3,4.2Zm4.82,1.72L13.31,8l.06-.16.12-.43a4.37,4.37,0,0,0,.12-.66q0-.33.06-.84a4.25,4.25,0,0,0-.05-1,6.19,6.19,0,0,1,.75,3,6.41,6.41,0,0,1-.85,3.24,6.26,6.26,0,0,1-2.3,2.34ZM2.14,5.42,5.2,13.8a6.28,6.28,0,0,1-2.6-2.36A6.36,6.36,0,0,1,1.62,8a6.21,6.21,0,0,1,.52-2.58ZM8.1,9l1.83,5A5.69,5.69,0,0,1,8,14.38a5.87,5.87,0,0,1-1.65-.24L8.1,9Z"/>
</svg>
