<svg xmlns="http://www.w3.org/2000/svg" width="16" height="16" viewBox="0 0 16 16">
    <path d="M15.84,4.8a3.46,3.46,0,0,0-.64-1.59,2.29,2.29,0,0,0-1.6-.68C11.36,2.37,8,2.37,8,2.37H8s-3.36,0-5.6.16a2.29,2.29,0,0,0-1.6.68A3.46,3.46,0,0,0,.16,4.8,24.19,24.19,0,0,0,0,7.39V8.6a24.19,24.19,0,0,0,.16,2.59A3.46,3.46,0,0,0,.8,12.78a2.71,2.71,0,0,0,1.76.68c1.28.12,5.44.16,5.44.16s3.36,0,5.6-.17a2.29,2.29,0,0,0,1.6-.68,3.46,3.46,0,0,0,.64-1.59A24.23,24.23,0,0,0,16,8.6V7.39A24.23,24.23,0,0,0,15.84,4.8ZM6.35,10.08V5.58l4.32,2.26Z"/>
</svg>
